<svg width="110" height="79" viewBox="0 0 110 79" fill="none" xmlns="http://www.w3.org/2000/svg">
<g clip-path="url(#clip0_14_1605)">
<path d="M2.78816 67.1197C7.09587 55.4271 11.9821 43.9776 17.3981 32.7574L14.61 33.1117C15.5301 41.0736 16.499 49.0493 17.9906 56.9277C18.7434 60.8809 19.6287 64.8132 20.723 68.6899C21.5734 71.712 22.3192 75.4011 24.7101 77.6521C27.1009 79.9031 30.8162 79.0555 32.8724 76.6378C35.0751 74.0464 36.7619 70.8366 38.3372 67.8423C41.6273 61.5895 44.2063 55.0033 46.8969 48.4865C49.929 41.143 53.1563 33.8343 57.7359 27.2967L54.892 27.6579C55.4217 35.9602 55.9584 44.2902 57.4919 52.4813C58.2656 56.6012 59.2763 60.7002 60.6983 64.6464C61.6533 67.2934 63.368 70.4267 66.421 70.9617C70.4429 71.6703 73.3984 68.2244 75.5732 65.3829C77.9013 62.3329 79.7275 58.9356 81.4701 55.5313C85.4851 47.6806 89.4373 39.7952 93.4244 31.9237C97.9691 22.9545 102.563 14.0061 107.003 4.9813C107.595 3.77244 104.8 4.11287 104.375 4.92572C96.5401 19.9671 89.0121 35.1612 81.3516 50.2859C79.609 53.7249 77.9361 57.2056 75.9914 60.5404C75.0783 62.1036 74.1024 63.6321 73.008 65.0841C71.9137 66.5361 70.8263 68.016 69.3904 68.9956C66.9299 70.6768 64.6017 66.2721 63.8977 64.5283C62.4688 60.9851 61.5487 57.1709 60.782 53.4401C58.9766 44.7001 58.405 35.7657 57.8335 26.8729C57.8056 26.4004 56.8437 26.4213 56.5649 26.456C56.0072 26.5255 55.3241 26.7617 54.9895 27.2341C47.2942 38.239 43.4535 51.2377 37.8214 63.2917C36.4204 66.2999 34.8869 69.2526 33.1582 72.0941C32.2939 73.5114 31.4087 74.9565 30.384 76.2696C30.1122 76.617 29.6451 77.277 29.1851 77.3742C28.725 77.4715 28.1883 77.1102 27.8537 76.8671C25.3514 75.0468 24.6334 71.316 23.8318 68.544C22.7932 64.9382 21.9359 61.2838 21.197 57.6086C19.5311 49.2508 18.5343 40.7887 17.4957 32.3405C17.3772 31.361 14.9794 32.1321 14.7076 32.6949C9.2567 44.0332 4.36347 55.6494 0.0278793 67.4602C-0.188203 68.0507 0.913121 68.0854 1.21982 68.0507C1.79139 67.9812 2.57208 67.7103 2.78816 67.1128V67.1197Z" fill="#431400"/>
<path d="M101.057 9.32356C102.193 7.78816 103.385 6.2875 104.64 4.84242C105.26 4.12683 105.887 3.42513 106.536 2.73733C106.815 2.43859 107.093 2.12595 107.4 1.84805C107.505 1.75079 107.665 1.67436 107.763 1.57015C107.79 1.52847 107.818 1.51457 107.86 1.52152C107.128 1.4312 106.905 1.47289 107.205 1.64657L107.1 1.26446C106.564 3.79335 106.034 6.32224 105.504 8.85113C105.149 10.5602 104.005 13.4087 105.887 14.6106C106.487 14.9927 109.045 14.1729 108.278 13.4017C107.686 12.7973 107.735 11.9845 107.867 11.1994C108.055 10.0808 108.32 8.97618 108.55 7.86458C109.031 5.54412 109.519 3.22366 109.993 0.903192C110.028 0.757295 109.993 0.63224 109.888 0.52108C108.808 -0.361253 107.268 0.00696478 106.138 0.625292C105.009 1.24362 104.249 2.24406 103.434 3.14723C101.663 5.09948 99.9905 7.1351 98.4291 9.26103C98.0318 9.80294 98.7707 10.0739 99.1959 10.0878C99.8372 10.1086 100.66 9.85852 101.064 9.31661L101.057 9.32356Z" fill="#431400"/>
</g>
<defs>
<clipPath id="clip0_14_1605">
<rect width="110" height="79" fill="white"/>
</clipPath>
</defs>
</svg>
