<svg width="23" height="23" viewBox="0 0 23 23" fill="none" xmlns="http://www.w3.org/2000/svg">
<rect width="23" height="23" fill="#FFE8E3"/>
<path d="M8 19C8.55228 19 9 18.5523 9 18C9 17.4477 8.55228 17 8 17C7.44772 17 7 17.4477 7 18C7 18.5523 7.44772 19 8 19Z" fill="#431400"/>
<path d="M15 19C15.5523 19 16 18.5523 16 18C16 17.4477 15.5523 17 15 17C14.4477 17 14 17.4477 14 18C14 18.5523 14.4477 19 15 19Z" fill="#431400"/>
<path d="M5.49 5.402C5.46735 5.28869 5.40616 5.18673 5.31683 5.11344C5.2275 5.04016 5.11555 5.00007 5 5H3V6H4.59L6.51 15.598C6.53265 15.7113 6.59384 15.8133 6.68317 15.8866C6.7725 15.9598 6.88445 15.9999 7 16H16V15H7.41L7.01 13H16C16.1137 13 16.2241 12.9612 16.3128 12.89C16.4015 12.8188 16.4633 12.7195 16.488 12.6085L17.622 7.5H16.5985L15.599 12H6.81L5.49 5.402Z" fill="#431400"/>
<path d="M13.793 7.293L12 9.086V5H11V9.086L9.207 7.293L8.5 8L11.5 11L14.5 8L13.793 7.293Z" fill="#431400"/>
</svg>
