<svg width="61" height="61" viewBox="0 0 61 61" fill="none" xmlns="http://www.w3.org/2000/svg">
<path d="M6.10001 15.25C6.10001 13.6322 6.10001 9.15002 6.10001 9.15002C6.10001 9.15002 10.5822 9.15003 12.2 9.15003H48.8C50.4178 9.15003 54.9 9.15003 54.9 9.15003C54.9 9.15003 54.9 13.6322 54.9 15.25V24.8453C53.9807 24.0223 52.9549 23.3267 51.85 22.7774V15.25C51.85 14.4411 51.5287 13.6653 50.9567 13.0934C50.3847 12.5214 49.6089 12.2 48.8 12.2H12.2C11.3911 12.2 10.6153 12.5214 10.0433 13.0934C9.47134 13.6653 9.15001 14.4411 9.15001 15.25V39.65C9.15001 40.4589 9.47134 41.2347 10.0433 41.8067C10.6153 42.3787 11.3911 42.7 12.2 42.7H34.3369H35.075V45.75H12.2C10.5822 45.75 6.10001 45.75 6.10001 45.75C6.10001 45.75 6.10001 41.2678 6.10001 39.65V15.25ZM56.425 35.075C56.425 37.9847 55.263 40.6199 53.375 42.5475V54.9V57.969L50.935 56.12L46.665 52.9175C46.401 52.7195 46.08 52.6125 45.75 52.6125C45.42 52.6125 45.099 52.7195 44.835 52.9175L40.565 56.12L38.125 57.969V56.12V54.9V42.5475C36.8997 41.2969 36.0008 39.7641 35.5075 38.0842C35.0142 36.4043 34.9417 34.6289 35.2963 32.9143C35.6509 31.1998 36.4218 29.5988 37.5411 28.2524C38.6604 26.906 40.0936 25.8556 41.7145 25.1937C43.3354 24.5319 45.0943 24.2788 46.836 24.457C48.5778 24.6351 50.249 25.2389 51.7024 26.2152C53.1558 27.1914 54.3467 28.5102 55.1703 30.0552C55.9939 31.6003 56.4248 33.3242 56.425 35.075ZM45.75 45.75C44.1122 45.75 42.5628 45.384 41.175 44.7222V51.0875L44.9662 48.8122C45.203 48.6703 45.4739 48.5954 45.75 48.5954C46.0261 48.5954 46.297 48.6703 46.5339 48.8122L50.325 51.0875V44.7222C48.8955 45.401 47.3325 45.7521 45.75 45.75ZM45.75 42.7C47.7723 42.7 49.7117 41.8967 51.1417 40.4667C52.5717 39.0367 53.375 37.0973 53.375 35.075C53.375 33.0527 52.5717 31.1133 51.1417 29.6833C49.7117 28.2534 47.7723 27.45 45.75 27.45C43.7277 27.45 41.7883 28.2534 40.3583 29.6833C38.9284 31.1133 38.125 33.0527 38.125 35.075C38.125 37.0973 38.9284 39.0367 40.3583 40.4667C41.7883 41.8967 43.7277 42.7 45.75 42.7ZM15.25 19.825C15.25 19.4206 15.4107 19.0327 15.6967 18.7467C15.9827 18.4607 16.3706 18.3 16.775 18.3H44.225C44.6295 18.3 45.0174 18.4607 45.3033 18.7467C45.5893 19.0327 45.75 19.4206 45.75 19.825C45.75 20.2295 45.5893 20.6174 45.3033 20.9034C45.0174 21.1894 44.6295 21.35 44.225 21.35H16.775C16.3706 21.35 15.9827 21.1894 15.6967 20.9034C15.4107 20.6174 15.25 20.2295 15.25 19.825ZM16.775 33.55C16.3706 33.55 15.9827 33.7107 15.6967 33.9967C15.4107 34.2827 15.25 34.6706 15.25 35.075C15.25 35.4795 15.4107 35.8674 15.6967 36.1534C15.9827 36.4394 16.3706 36.6 16.775 36.6H28.975C29.3795 36.6 29.7674 36.4394 30.0533 36.1534C30.3393 35.8674 30.5 35.4795 30.5 35.075C30.5 34.6706 30.3393 34.2827 30.0533 33.9967C29.7674 33.7107 29.3795 33.55 28.975 33.55H16.775Z" fill="#FFE8E3"/>
</svg>
