<svg width="61" height="61" viewBox="0 0 61 61" fill="none" xmlns="http://www.w3.org/2000/svg">
<path d="M56.2001 16.4395L37.6765 6.10003L36.2412 5.38239L34.8059 6.10003L16.8647 16.5059L14.2289 18.1094L16.8647 19.7353L34.3125 29.7204V50.1534L28.5251 46.97L26.6875 50.3079L34.0882 54.5412L36.2412 55.6177L38.0353 54.5412L56.2001 44.5605L57.1875 43.9768V42.8906V18.1094V16.9759L56.2001 16.4395ZM36.2187 9.80195L51.3258 18.1094L36.2187 26.4168L21.1117 18.1094L36.2187 9.80195ZM53.375 41.764L38.125 50.1515V29.7184L53.375 21.3309V41.764Z" fill="#FFE8E3"/>
<path d="M19.0625 30.5H3.8125V26.6875H19.0625V30.5ZM22.875 45.75H7.625V41.9375H22.875V45.75ZM26.6875 38.125H11.4375V34.3125H26.6875V38.125Z" fill="#FFE8E3"/>
</svg>
