<svg width="77" height="71" viewBox="0 0 77 71" fill="none" xmlns="http://www.w3.org/2000/svg">
<g clip-path="url(#clip0_14_1582)">
<path d="M67.9719 26.8513C56.6537 22.1724 45.2864 17.6117 33.9436 12.9919C33.0816 12.6367 32.9963 13.7853 33.139 14.3165C34.2458 18.4101 37.296 21.8084 39.7953 25.1364C42.2946 28.4645 44.9891 31.8924 47.6821 35.2063C53.0679 41.8341 58.7841 48.1274 64.5346 54.4316L64.9778 51.8166C56.8315 47.2019 48.4921 42.8926 40.2472 38.4416C32.0023 33.9906 23.767 29.5368 15.5125 25.0885C10.8558 22.5799 6.19906 20.0713 1.5122 17.6026C0.775054 17.2114 0.241353 17.4901 0.262553 18.3581C0.283753 19.2262 0.993889 20.4265 1.76409 20.8602C18.165 29.9231 34.7272 38.6794 51.2238 47.569C55.8806 50.0776 60.5114 52.677 65.2229 55.0866C65.8582 55.4134 66.4089 55.338 66.4647 54.5206C66.5272 53.618 65.9098 52.7032 65.3177 52.0933C59.7664 46.4081 54.5796 40.3266 49.541 34.1815C47.0396 31.135 44.5876 28.0431 42.1945 24.903C40.9931 23.3343 39.811 21.7601 38.6357 20.1735C37.4604 18.5869 36.1781 17.0623 35.6614 15.1611L34.8568 16.4857C46.1981 21.0643 57.5024 25.6951 68.8587 30.2174C69.6932 30.5493 69.7539 29.4599 69.6332 28.9327C69.4404 28.0828 68.7872 27.1887 67.9719 26.8513Z" fill="#431400"/>
</g>
<defs>
<clipPath id="clip0_14_1582">
<rect width="54.94" height="63.79" fill="white" transform="translate(61.2957) rotate(73.9245)"/>
</clipPath>
</defs>
</svg>
