<svg width="134" height="34" viewBox="0 0 134 34" fill="none" xmlns="http://www.w3.org/2000/svg">
<path d="M58.9393 24.3844C61.1934 27.6969 64.9076 29.7693 68.8096 30.5974C73.3819 31.5642 78.142 30.7739 82.4709 29.1934C86.4498 27.7389 90.4586 25.6413 93.5196 22.703C96.064 20.2649 98.5017 16.5279 97.6479 12.8666C97.2551 11.1809 96.0042 9.86099 94.1728 9.80635C92.0552 9.73909 90.0487 11.1389 89.0924 12.9422C87.1244 16.6582 88.5204 21.1897 91.56 23.8968C94.732 26.7259 99.1976 27.802 103.394 27.6002C108.009 27.3774 112.453 25.7716 116.33 23.342C120.206 20.9123 123.472 17.7764 126.512 14.4471C129.551 11.1179 132.403 7.72136 133.556 3.47572C133.829 2.47105 133.979 1.44537 134 0.407084C134.017 -0.324343 132.207 0.0413707 132.194 0.629875C132.1 4.69056 129.961 8.25522 127.468 11.3617C124.932 14.5186 122.072 17.52 118.934 20.1094C115.813 22.6904 112.266 24.8342 108.308 25.902C104.483 26.936 100.286 26.9402 96.619 25.3387C93.1695 23.8338 90.3732 20.8997 90.0103 17.0828C89.8395 15.2921 90.2579 13.2407 91.5173 11.8745C92.004 11.3491 92.7084 10.7732 93.4726 10.8026C94.2368 10.832 94.843 11.3196 95.2571 11.8913C96.1537 13.1398 96.1622 14.8759 95.8164 16.3051C95.4023 18.0286 94.5442 19.5965 93.4214 20.9753C91.0989 23.838 87.7733 25.8347 84.439 27.3648C80.5669 29.1387 76.3233 30.3157 72.02 29.9668C68.4552 29.6768 64.8777 28.2476 62.3034 25.7716C61.6502 25.1453 61.0696 24.4517 60.5615 23.7077C60.2328 23.2285 58.5209 23.8001 58.9222 24.3887H58.9393V24.3844Z" fill="#AE5C14" fill-opacity="0.43"/>
<path d="M25.7007 33.2058C25.7671 33.2058 25.8002 33.272 25.8002 33.4044C25.8002 33.5367 25.7671 33.6029 25.7007 33.6029C25.0154 33.6029 24.4737 33.5919 24.0758 33.5698L21.7876 33.5367L19.6652 33.5698C19.3115 33.5919 18.814 33.6029 18.1729 33.6029C18.1287 33.6029 18.1066 33.5367 18.1066 33.4044C18.1066 33.272 18.1287 33.2058 18.1729 33.2058C18.9246 33.2058 19.4773 33.1507 19.831 33.0404C20.2069 32.908 20.4501 32.6874 20.5606 32.3786C20.6932 32.0697 20.7375 31.5844 20.6932 30.9226L20.0963 15.8662L12.5353 33.3713C12.4911 33.4595 12.4027 33.5036 12.27 33.5036C12.1595 33.5036 12.06 33.4595 11.9716 33.3713L3.81366 16.0648L3.5152 29.996C3.49309 31.1652 3.69206 31.9925 4.11212 32.4778C4.53217 32.9632 5.2728 33.2058 6.33399 33.2058C6.3782 33.2058 6.40031 33.272 6.40031 33.4044C6.40031 33.5367 6.3782 33.6029 6.33399 33.6029C5.71496 33.6029 5.23963 33.5919 4.90801 33.5698L3.11725 33.5367L1.39281 33.5698C1.0833 33.5919 0.641137 33.6029 0.0663245 33.6029C0.0221082 33.6029 0 33.5367 0 33.4044C0 33.272 0.0221082 33.2058 0.0663245 33.2058C0.994867 33.2058 1.65811 32.9632 2.05606 32.4778C2.47611 31.9704 2.6972 31.1432 2.7193 29.996L3.01776 14.6419C2.35452 13.7595 1.44808 13.3183 0.29846 13.3183C0.254244 13.3183 0.232136 13.2521 0.232136 13.1197C0.232136 12.9874 0.254244 12.9212 0.29846 12.9212L1.52546 12.9543C1.74654 12.9763 2.05606 12.9873 2.45401 12.9873C2.85195 12.9873 3.18358 12.9763 3.44887 12.9543C3.73628 12.9322 3.95736 12.9212 4.11212 12.9212C4.39952 12.9212 4.63166 13.0315 4.80853 13.2521C5.0075 13.4506 5.28385 13.9139 5.63758 14.6419L13.0328 30.1946L20.2621 13.7484C20.5053 13.1969 20.8369 12.9212 21.257 12.9212C21.3675 12.9212 21.5223 12.9322 21.7213 12.9543C21.9424 12.9763 22.2298 12.9873 22.5835 12.9873L24.1421 12.9543C24.3853 12.9322 24.7501 12.9212 25.2365 12.9212C25.3028 12.9212 25.336 12.9874 25.336 13.1197C25.336 13.2521 25.3028 13.3183 25.2365 13.3183C24.1311 13.3183 23.3352 13.4837 22.8488 13.8146C22.3845 14.1235 22.1634 14.7191 22.1855 15.6015L22.8488 30.9226C22.8709 31.6064 22.9483 32.1028 23.0809 32.4116C23.2357 32.7205 23.501 32.9301 23.8768 33.0404C24.2527 33.1507 24.8606 33.2058 25.7007 33.2058Z" fill="#431400"/>
<path d="M44.9328 33.2058C45.0212 33.2058 45.0654 33.272 45.0654 33.4044C45.0654 33.5367 45.0212 33.6029 44.9328 33.6029C44.5348 33.6029 43.8937 33.5809 43.0094 33.5367C42.125 33.4926 41.4839 33.4706 41.0859 33.4706C40.7322 33.4706 40.2679 33.4926 39.6931 33.5367C39.1183 33.5809 38.6762 33.6029 38.3666 33.6029C38.2782 33.6029 38.234 33.5367 38.234 33.4044C38.234 33.272 38.2782 33.2058 38.3666 33.2058C38.9415 33.2058 39.3615 33.1396 39.6268 33.0073C39.9142 32.8529 40.0579 32.5881 40.0579 32.2131C40.0579 31.8822 39.9253 31.4189 39.66 30.8233L37.4049 25.992H32.7622L31.3362 29.5327C30.9825 30.371 30.8057 31.066 30.8057 31.6175C30.8057 32.191 31.0046 32.5992 31.4026 32.8418C31.8005 33.0845 32.4085 33.2058 33.2265 33.2058C33.337 33.2058 33.3923 33.272 33.3923 33.4044C33.3923 33.5367 33.337 33.6029 33.2265 33.6029C32.8949 33.6029 32.4417 33.5809 31.8668 33.5367C31.2478 33.4926 30.673 33.4706 30.1424 33.4706C29.5897 33.4706 28.9375 33.4926 28.1858 33.5367C27.5226 33.5809 26.992 33.6029 26.594 33.6029C26.4835 33.6029 26.4282 33.5367 26.4282 33.4044C26.4282 33.272 26.4835 33.2058 26.594 33.2058C27.2794 33.2058 27.821 33.1176 28.219 32.9411C28.6169 32.7425 28.9817 32.3675 29.3133 31.816C29.6671 31.2645 30.0871 30.4041 30.5735 29.2349L35.3489 17.6201C35.3931 17.5318 35.4594 17.4877 35.5479 17.4877C35.6363 17.4877 35.6916 17.5318 35.7137 17.6201L41.0528 29.0695C41.6276 30.3049 42.0808 31.1983 42.4124 31.7498C42.7662 32.3013 43.1199 32.6874 43.4736 32.908C43.8495 33.1065 44.3358 33.2058 44.9328 33.2058ZM32.9944 25.3964H37.1396L34.9178 20.6313L32.9944 25.3964Z" fill="#431400"/>
<path d="M55.2991 25.0324C56.8909 25.1427 58.1179 25.5177 58.9801 26.1575C59.8423 26.7972 60.2734 27.7127 60.2734 28.904C60.2734 30.338 59.6986 31.5072 58.549 32.4116C57.3994 33.2941 55.9181 33.7353 54.1052 33.7353C53.5304 33.7353 52.8561 33.7022 52.0823 33.636C51.7728 33.6139 51.408 33.5919 50.988 33.5698C50.5679 33.5478 50.1147 33.5367 49.6283 33.5367L47.7049 33.5698C47.3291 33.5919 46.8206 33.6029 46.1795 33.6029C46.1352 33.6029 46.1131 33.5367 46.1131 33.4044C46.1131 33.272 46.1352 33.2058 46.1795 33.2058C46.9311 33.2058 47.4728 33.1507 47.8044 33.0404C48.1581 32.9301 48.3903 32.7205 48.5008 32.4116C48.6335 32.0807 48.6998 31.5844 48.6998 30.9226V20.7968C48.6998 20.135 48.6335 19.6496 48.5008 19.3408C48.3903 19.0319 48.1581 18.8224 47.8044 18.7121C47.4728 18.5797 46.9422 18.5135 46.2126 18.5135C46.1684 18.5135 46.1463 18.4473 46.1463 18.315C46.1463 18.1826 46.1684 18.1164 46.2126 18.1164L47.7049 18.1495C48.545 18.1936 49.1862 18.2157 49.6283 18.2157C50.2253 18.2157 50.8332 18.1826 51.4523 18.1164C51.6733 18.0944 51.9829 18.0723 52.3808 18.0502C52.8009 18.0282 53.1656 18.0171 53.4752 18.0171C55.0669 18.0171 56.305 18.3039 57.1893 18.8775C58.0737 19.4511 58.5158 20.2563 58.5158 21.2931C58.5158 22.1535 58.2284 22.9146 57.6536 23.5764C57.0788 24.2162 56.2939 24.7015 55.2991 25.0324ZM52.6129 18.4473C52.0823 18.4473 51.6844 18.5135 51.4191 18.6459C51.1538 18.7562 50.9659 18.9878 50.8553 19.3408C50.7448 19.6717 50.6895 20.1791 50.6895 20.863V25.0324C51.0654 25.0545 51.596 25.0655 52.2813 25.0655C53.7405 25.0655 54.7906 24.8669 55.4317 24.4699C56.095 24.0507 56.4266 23.2234 56.4266 21.988C56.4266 20.7527 56.106 19.8592 55.4649 19.3077C54.8237 18.7341 53.8731 18.4473 52.6129 18.4473ZM53.5083 33.2058C56.5592 33.2058 58.0847 32.0256 58.0847 29.6651C58.0847 28.4077 57.6204 27.4149 56.6919 26.6869C55.7633 25.9589 54.3374 25.5949 52.414 25.5949C51.6402 25.5949 51.0654 25.617 50.6895 25.6611V30.9226C50.6895 31.7609 50.8774 32.3565 51.2533 32.7095C51.6512 33.0404 52.4029 33.2058 53.5083 33.2058Z" fill="#431400"/>
<path d="M75.198 29.2018C75.198 29.1357 75.2533 29.1026 75.3638 29.1026C75.4964 29.1026 75.5628 29.1357 75.5628 29.2018C75.408 30.7902 75.3306 32.0918 75.3306 33.1065C75.3306 33.283 75.2975 33.4154 75.2311 33.5036C75.1648 33.5698 75.0322 33.6029 74.8332 33.6029H62.6958C62.6516 33.6029 62.6295 33.5367 62.6295 33.4044C62.6295 33.272 62.6516 33.2058 62.6958 33.2058C63.4254 33.2058 63.956 33.1507 64.2876 33.0404C64.6192 32.9301 64.8403 32.7205 64.9508 32.4116C65.0835 32.0807 65.1498 31.5844 65.1498 30.9226V20.7968C65.1498 20.135 65.0835 19.6496 64.9508 19.3408C64.8403 19.0319 64.6192 18.8224 64.2876 18.7121C63.956 18.5797 63.4254 18.5135 62.6958 18.5135C62.6516 18.5135 62.6295 18.4473 62.6295 18.315C62.6295 18.1826 62.6516 18.1164 62.6958 18.1164H74.2363C74.4574 18.1164 74.5679 18.2047 74.5679 18.3811L74.6011 20.4328C74.6232 20.8519 74.6342 21.3814 74.6342 22.0211C74.6342 22.0873 74.5679 22.1204 74.4352 22.1204C74.3026 22.1204 74.2363 22.0873 74.2363 22.0211C74.1478 21.0063 73.772 20.1791 73.1088 19.5393C72.4676 18.8775 71.6717 18.5466 70.7211 18.5466H69.7925C69.0187 18.5466 68.455 18.6128 68.1013 18.7451C67.7475 18.8554 67.5043 19.065 67.3717 19.3739C67.239 19.6827 67.1727 20.1681 67.1727 20.8299V25.3633C69.3172 25.3412 70.7763 25.2861 71.5501 25.1979C72.346 25.0875 72.7992 25.0324 72.9098 25.0324C73.0203 25.0324 73.0756 25.264 73.0756 25.7273C73.0756 26.2347 73.0203 26.4884 72.9098 26.4884C72.8214 26.4884 72.3792 26.4332 71.5833 26.3229C70.7874 26.1906 69.3172 26.1023 67.1727 26.0582V30.7902C67.1727 31.4299 67.239 31.9153 67.3717 32.2462C67.5043 32.555 67.7475 32.7756 68.1013 32.908C68.4771 33.0183 69.0408 33.0735 69.7925 33.0735H71.3843C72.2686 33.0735 73.0645 32.7205 73.772 32.0146C74.4795 31.2866 74.9548 30.349 75.198 29.2018Z" fill="#431400"/>
<path d="M82.5556 30.7902C82.5556 31.4299 82.6109 31.9043 82.7214 32.2131C82.854 32.5219 83.0862 32.7425 83.4178 32.8749C83.7715 33.0073 84.2911 33.0735 84.9764 33.0735H87.1651C88.3369 33.0735 89.2654 32.7095 89.9508 31.9815C90.6582 31.2535 91.1336 30.2497 91.3767 28.9702C91.3767 28.9261 91.421 28.904 91.5094 28.904C91.5757 28.904 91.631 28.915 91.6752 28.9371C91.7415 28.9592 91.7747 28.9923 91.7747 29.0364C91.6199 30.0512 91.5426 31.4079 91.5426 33.1065C91.5426 33.283 91.4983 33.4154 91.4099 33.5036C91.3436 33.5698 91.222 33.6029 91.0451 33.6029H78.0787C78.0345 33.6029 78.0124 33.5367 78.0124 33.4044C78.0124 33.272 78.0345 33.2058 78.0787 33.2058C78.8083 33.2058 79.3389 33.1507 79.6705 33.0404C80.0021 32.9301 80.2232 32.7205 80.3337 32.4116C80.4443 32.0807 80.4995 31.5844 80.4995 30.9226V20.7968C80.4995 20.135 80.4332 19.6496 80.3006 19.3408C80.19 19.0319 79.9689 18.8224 79.6373 18.7121C79.3057 18.5797 78.7861 18.5135 78.0787 18.5135C78.0345 18.5135 78.0124 18.4473 78.0124 18.315C78.0124 18.1826 78.0345 18.1164 78.0787 18.1164L79.571 18.1495C80.4111 18.1936 81.0633 18.2157 81.5276 18.2157C82.0803 18.2157 82.7767 18.1936 83.6168 18.1495L85.0096 18.1164C85.0759 18.1164 85.1091 18.1826 85.1091 18.315C85.1091 18.4473 85.0759 18.5135 85.0096 18.5135C84.28 18.5135 83.7494 18.5797 83.4178 18.7121C83.0862 18.8224 82.854 19.043 82.7214 19.3739C82.6109 19.6827 82.5556 20.1681 82.5556 20.8299V30.7902Z" fill="#431400"/>
<path d="M92.646 12.6564C93.3092 12.6564 93.8288 12.9101 94.2046 13.4175C94.5804 13.9029 94.7684 14.6088 94.7684 15.5353C94.7684 16.4178 94.5694 17.245 94.1714 18.0171C93.7735 18.7672 93.1876 19.5173 92.4138 20.2673C92.3917 20.2894 92.3586 20.3004 92.3144 20.3004C92.248 20.3004 92.1928 20.2673 92.1485 20.2011C92.1043 20.135 92.1043 20.0798 92.1485 20.0357C93.2318 18.9327 93.7735 17.6311 93.7735 16.131C93.7735 15.5133 93.663 15.061 93.4419 14.7743C93.2429 15.1052 92.9002 15.2706 92.4138 15.2706C92.0159 15.2706 91.6953 15.1493 91.4521 14.9066C91.2311 14.6639 91.1205 14.3551 91.1205 13.9801C91.1205 13.0977 91.629 12.6564 92.646 12.6564Z" fill="#431400"/>
<path d="M100.348 16.7928C100.348 17.6532 100.558 18.4032 100.978 19.043C101.398 19.6827 101.907 20.2232 102.503 20.6644C103.1 21.0836 103.94 21.624 105.024 22.2859C106.173 22.9697 107.069 23.5433 107.71 24.0066C108.351 24.4699 108.893 25.0655 109.335 25.7935C109.799 26.4994 110.031 27.3488 110.031 28.3415C110.031 29.4004 109.766 30.36 109.235 31.2204C108.705 32.0807 107.92 32.7646 106.881 33.272C105.864 33.7573 104.637 34 103.2 34C101.498 34 99.9389 33.6139 98.524 32.8418C98.4134 32.7756 98.3361 32.6984 98.2919 32.6102C98.2697 32.5219 98.2476 32.3896 98.2255 32.2131L97.7944 27.7127C97.7723 27.6245 97.8165 27.5694 97.9271 27.5473C98.0597 27.5252 98.1371 27.5583 98.1592 27.6466C98.5129 29.2349 99.1651 30.6027 100.116 31.7498C101.089 32.897 102.371 33.4706 103.963 33.4706C105.068 33.4706 105.997 33.1727 106.748 32.5771C107.522 31.9594 107.909 30.9887 107.909 29.6651C107.909 28.6724 107.688 27.812 107.246 27.084C106.803 26.356 106.262 25.7604 105.621 25.2971C105.002 24.8118 104.151 24.2492 103.067 23.6095C102.006 22.9697 101.166 22.4182 100.547 21.955C99.95 21.4917 99.4415 20.9071 99.0214 20.2011C98.6014 19.4952 98.3913 18.6679 98.3913 17.7193C98.3913 16.6163 98.6787 15.6787 99.2536 14.9066C99.8505 14.1124 100.613 13.5278 101.542 13.1528C102.492 12.7557 103.498 12.5572 104.56 12.5572C105.864 12.5572 107.157 12.8219 108.439 13.3513C108.771 13.4616 108.937 13.6492 108.937 13.9139L109.169 17.7193C109.169 17.8076 109.114 17.8517 109.003 17.8517C108.893 17.8517 108.826 17.8076 108.804 17.7193C108.627 16.5722 108.152 15.5133 107.378 14.5426C106.605 13.5499 105.488 13.0535 104.029 13.0535C102.791 13.0535 101.862 13.4175 101.243 14.1455C100.646 14.8515 100.348 15.7339 100.348 16.7928Z" fill="#431400"/>
</svg>
