<svg width="56" height="52" viewBox="0 0 56 52" fill="none" xmlns="http://www.w3.org/2000/svg">
<g clip-path="url(#clip0_14_1578)">
<path d="M19.6173 48.7121L10.2493 42.6513L5.71833 39.7157C4.123 38.6812 2.55682 37.523 0.881365 36.627C0.276745 36.2992 0.0217846 36.9111 -6.91277e-05 37.4356C-0.0292074 38.1203 0.254891 38.9872 0.815804 39.4097C2.34557 40.5679 4.04287 41.5368 5.65276 42.5785L10.1838 45.5142L19.5517 51.5822C20.1564 51.9756 20.4332 51.2399 20.455 50.7445C20.4842 50.0816 20.2074 49.0982 19.61 48.7121H19.6173Z" fill="#431400"/>
<path d="M29.8595 37.0931C25.9477 25.1537 22.1451 13.1706 18.0949 1.27486C17.9565 0.859634 17.5995 -0.145638 16.9804 0.0146217C16.3903 0.174881 16.5214 1.26757 16.6453 1.66094C20.4187 13.6441 24.4325 25.5544 28.3516 37.4938C28.4973 37.9309 28.8688 38.9798 29.5171 38.805C30.129 38.6447 30.0052 37.4938 29.8668 37.0858L29.8595 37.0931Z" fill="#431400"/>
<path d="M43.5181 39.5261L49.455 30.2237L52.3761 25.649C53.3814 24.0756 54.4814 22.5239 55.3701 20.8849C55.6688 20.324 55.4429 19.4571 55.1734 18.9399C55.035 18.6704 54.4377 17.8181 54.0661 18.3134C52.937 19.8141 51.99 21.4677 50.9848 23.0484L48.0637 27.6231L42.0247 37.0785C41.4857 37.9235 42.7241 40.7718 43.5181 39.5334V39.5261Z" fill="#431400"/>
</g>
<defs>
<clipPath id="clip0_14_1578">
<rect width="51.6914" height="55.5158" fill="white" transform="translate(0 51.6914) rotate(-90)"/>
</clipPath>
</defs>
</svg>
