<svg width="1116" height="320" viewBox="0 0 1116 320" fill="none" xmlns="http://www.w3.org/2000/svg">
<path d="M0.887786 221.215C34.3697 270.545 89.5387 301.407 147.498 313.74C215.413 328.138 286.118 316.369 350.419 292.831C409.519 271.171 469.064 239.933 514.531 196.174C552.325 159.865 588.533 104.212 575.851 49.6862C570.017 24.5829 551.437 4.92601 524.233 4.11218C492.78 3.11057 462.976 23.9569 448.772 50.813C419.538 106.153 440.274 173.637 485.424 213.953C532.54 256.084 598.869 272.11 661.204 269.105C729.753 265.787 795.766 241.873 853.345 205.689C910.923 169.506 959.434 122.805 1004.58 73.2244C1049.73 23.6439 1092.09 -26.9382 1109.21 -90.1659C1113.27 -105.128 1115.49 -120.402 1115.81 -135.865C1116.06 -146.758 1089.18 -141.311 1088.99 -132.547C1087.59 -72.074 1055.82 -18.9878 1018.79 27.2748C981.121 74.2886 938.635 118.986 892.026 157.549C845.672 195.986 792.976 227.913 734.192 243.814C677.374 259.214 615.04 259.276 560.568 235.425C509.331 213.014 467.795 169.318 462.405 112.476C459.869 85.8073 466.083 55.2577 484.79 34.9122C492.019 27.087 502.482 18.5106 513.833 18.9488C525.184 19.387 534.189 26.6488 540.34 35.1626C553.656 53.7553 553.783 79.6098 548.647 100.894C542.496 126.561 529.75 149.911 513.072 170.445C478.576 213.076 429.177 242.812 379.652 265.599C322.136 292.017 259.104 309.546 195.184 304.35C142.235 300.03 89.0948 278.746 50.857 241.873C41.1549 232.546 32.5307 222.216 24.9846 211.136C20.1018 203.999 -5.32666 212.513 0.634136 221.277H0.887786V221.215Z" fill="#DC8539" fill-opacity="0.1"/>
</svg>
