<svg width="102" height="110" viewBox="0 0 102 110" fill="none" xmlns="http://www.w3.org/2000/svg">
<g clip-path="url(#clip0_9_1289)">
<path d="M22.3391 61.7474L9.92073 72.9021C9.36663 73.4034 9.02502 74.3931 9.13997 75.1284C9.25085 75.8104 9.73994 75.9823 10.2589 75.5177L22.6773 64.3629C23.2314 63.8617 23.573 62.8719 23.4581 62.1367C23.3472 61.4547 22.8581 61.2828 22.3391 61.7474Z" fill="#431400"/>
<path d="M38.1429 47.9702C33.7081 50.8571 30.1009 54.7531 26.1965 58.2847C25.6377 58.7929 25.3124 59.7735 25.4157 60.511C25.515 61.1951 26.0204 61.3579 26.5347 60.9003C30.2801 57.5128 33.7286 53.7309 37.9885 50.9672C38.6413 50.5434 38.991 49.6603 39.0291 48.9081C39.048 48.4359 38.8052 47.5326 38.1476 47.9633L38.1429 47.9702Z" fill="#431400"/>
<path d="M55.9878 45.6906C51.5574 44.4373 46.7275 44.1847 42.359 45.8335C41.6523 46.0993 41.269 46.8686 41.1272 47.5803C41.0685 47.8738 41.0165 49.2834 41.7117 49.0198C45.9569 47.4184 50.5674 47.6223 54.8776 48.8442C55.5379 49.0318 56.0579 48.0324 56.2182 47.5455C56.35 47.1301 56.648 45.8782 55.983 45.6975L55.9878 45.6906Z" fill="#431400"/>
<path d="M72.4191 53.3508C68.1352 52.0457 64.2173 49.8485 60.5061 47.3778C59.9475 46.9968 59.2873 48.3352 59.1656 48.6766C58.9579 49.2626 58.8098 50.1316 59.4007 50.5246C63.1119 52.9952 67.0298 55.1925 71.3137 56.4975C72.4424 56.8429 73.5155 53.6842 72.4122 53.3461L72.4191 53.3508Z" fill="#431400"/>
<path d="M89.6858 47.5037C88.5288 49.6148 86.8997 51.4848 84.8095 52.727C82.612 54.0375 80.0246 54.5566 77.4797 54.3467C76.235 54.2456 75.3748 57.4181 76.3812 57.4982C79.3472 57.7426 82.2613 57.2038 84.8181 55.6331C87.3749 54.0624 89.4321 51.5648 90.9055 48.8712C91.1818 48.3624 91.5319 47.2268 91.0369 46.7376C90.5075 46.2249 89.8937 47.1099 89.6789 47.499L89.6858 47.5037Z" fill="#431400"/>
<path d="M94.613 32.2197C93.6404 35.9422 92.814 39.643 91.5345 43.2672C91.3745 43.724 91.1144 44.8906 91.7696 45.1152C92.4249 45.3398 92.9574 44.2479 93.1102 43.8165C94.4898 39.927 95.3868 35.9004 96.4293 31.9124C96.5451 31.476 96.5475 30.3761 95.8448 30.4729C95.1422 30.5697 94.7648 31.6563 94.613 32.2197Z" fill="#431400"/>
<path d="M9.9866 65.1456C7.12387 68.0538 4.55926 71.2361 2.3348 74.6604C1.99108 75.194 1.56639 76.1574 1.89079 76.793C2.64397 78.2667 4.17054 78.4288 5.67769 78.4563C7.62003 78.4977 9.56739 78.5021 11.5079 78.5018C15.3355 78.5052 19.1753 78.4463 23.002 78.3178C24.0166 78.2822 24.8239 75.3059 23.6102 75.3371C20.1243 75.4252 16.6387 75.4833 13.1491 75.4881C11.4378 75.4931 9.71744 75.4818 8.00179 75.4637C6.79782 75.4509 4.23525 75.8152 3.54319 74.4741L3.09918 76.6067C5.19664 73.3685 7.59724 70.3674 10.3101 67.6198C10.8087 67.111 11.1769 66.2303 11.0526 65.5089C10.9501 64.9034 10.4711 64.6575 9.9982 65.1434L9.9866 65.1456Z" fill="#431400"/>
</g>
<defs>
<clipPath id="clip0_9_1289">
<rect width="91.6831" height="58.7733" fill="white" transform="translate(101.21 33.9706) rotate(124.296)"/>
</clipPath>
</defs>
</svg>
