<svg width="38" height="38" viewBox="0 0 38 38" fill="none" xmlns="http://www.w3.org/2000/svg">
<g clip-path="url(#clip0_14_1780)">
<path d="M1.76885 10.1005L4.82292 23.8042C5.83428 28.3165 6.69039 32.895 7.9281 37.3528C8.12599 38.0683 10.2308 37.0002 10.1082 36.2891C9.33204 31.7322 8.16004 27.2199 7.14868 22.7076L4.12152 9.15042C3.89596 8.14722 1.57672 9.29125 1.76463 10.1078L1.76885 10.1005Z" fill="#FFF5EC" fill-opacity="0.31"/>
<path d="M2.36946 10.8431C9.97044 8.38223 17.4631 5.56303 24.845 2.51526L23.8293 1.88362C21.3729 5.25933 18.7492 8.49539 15.9058 11.5567C15.4888 12.0066 15.4654 12.5416 16.1847 12.5517C20.8585 12.609 25.5338 12.6719 30.2049 12.7422L30.7564 11.1803C22.3903 15.0513 14.0399 19.0041 5.87701 23.2879C5.56842 23.4505 4.98659 23.9077 5.11609 24.3218C5.24559 24.7359 5.90043 24.5973 6.18481 24.4597C14.3638 20.4667 22.5174 16.4252 30.7787 12.6008C31.1795 12.4134 31.7721 12.0886 31.8977 11.6123C32.0084 11.1953 31.7079 11.0422 31.3301 11.0389C26.6522 10.9889 21.9726 10.9333 17.2973 10.8703L17.5763 11.8653C20.5247 8.66522 23.2997 5.30252 25.8303 1.76553C26.3884 0.988896 25.3077 0.921854 24.8147 1.13389C17.5357 4.19711 10.1169 6.92276 2.62235 9.43507C2.23652 9.56304 1.60934 9.98932 1.57014 10.4425C1.53093 10.8957 2.01667 10.9561 2.36946 10.8431Z" fill="#FFF5EC" fill-opacity="0.31"/>
</g>
<defs>
<clipPath id="clip0_14_1780">
<rect width="30" height="31" fill="white" transform="translate(0 7.76465) rotate(-15)"/>
</clipPath>
</defs>
</svg>
