<svg width="18" height="18" viewBox="0 0 18 18" fill="none" xmlns="http://www.w3.org/2000/svg">
<path d="M9.00001 15.9375V6.96375C9.00001 6.71376 9.04931 6.46622 9.14509 6.23531C9.24087 6.00439 9.38126 5.79464 9.5582 5.61804C9.73515 5.44144 9.94518 5.30148 10.1763 5.20615C10.4074 5.11082 10.655 5.06201 10.905 5.0625C11.8388 5.0625 12.4238 5.34 12.825 5.8575M7.38751 8.73375H11.1938" stroke="#FFE8E3" stroke-linecap="round" stroke-linejoin="round"/>
<path d="M2.80499 2.0625C2.60608 2.0625 2.41531 2.14152 2.27466 2.28217C2.13401 2.42282 2.05499 2.61359 2.05499 2.8125V2.8125V15.1875C2.05499 15.3864 2.13401 15.5772 2.27466 15.7178C2.41531 15.8585 2.60608 15.9375 2.80499 15.9375H15.195C15.3939 15.9375 15.5847 15.8585 15.7253 15.7178C15.866 15.5772 15.945 15.3864 15.945 15.1875V2.8125C15.945 2.61359 15.866 2.42282 15.7253 2.28217C15.5847 2.14152 15.3939 2.0625 15.195 2.0625H2.80499Z" stroke="#FFE8E3" stroke-linecap="round" stroke-linejoin="round"/>
</svg>
