<svg width="84" height="82" viewBox="0 0 84 82" fill="none" xmlns="http://www.w3.org/2000/svg">
<g clip-path="url(#clip0_9_1309)">
<path d="M16.0065 57.5587C28.2108 58.5822 40.4262 59.478 52.636 60.4377C53.5652 60.5145 53.2979 59.3943 53.0007 58.9314C50.7038 55.3667 46.7661 53.0544 43.3747 50.6418C39.9833 48.2291 36.3755 45.7806 32.8039 43.4402C25.6607 38.7595 18.3043 34.4977 10.9118 30.236L11.2831 32.8622C20.4457 34.787 29.6995 36.3623 38.9063 38.1013C48.1132 39.8402 57.3117 41.5848 66.5268 43.3182C71.7252 44.2953 76.9237 45.2724 82.1387 46.2024C82.9598 46.3514 83.3837 45.9239 83.1001 45.1032C82.8165 44.2825 81.7756 43.3543 80.9101 43.1748C62.5323 39.5166 44.0938 36.1995 25.6774 32.7354C20.479 31.7583 15.2777 30.6869 10.0572 29.8207C9.35262 29.7021 8.85083 29.9411 9.0457 30.7369C9.26005 31.6159 10.126 32.3002 10.8752 32.7017C17.89 36.434 24.6778 40.6547 31.3437 44.9808C34.6516 47.1245 37.9264 49.3265 41.1595 51.5923C42.7803 52.7224 44.3844 53.8637 45.9858 55.0188C47.5871 56.1739 49.2716 57.2374 50.3409 58.8922L50.7056 57.3858C38.5097 56.465 26.3331 55.4831 14.1401 54.6205C13.2442 54.5575 13.5169 55.6139 13.7919 56.0796C14.2336 56.8309 15.1272 57.4846 16.0065 57.5587Z" fill="#431400"/>
</g>
<defs>
<clipPath id="clip0_9_1309">
<rect width="54.94" height="63.79" fill="white" transform="translate(30.5166 81.1176) rotate(-123.742)"/>
</clipPath>
</defs>
</svg>
