<svg width="67" height="73" viewBox="0 0 67 73" fill="none" xmlns="http://www.w3.org/2000/svg">
<g clip-path="url(#clip0_11_1346)">
<path d="M16.9932 44.0915C20.6649 32.3609 23.4358 20.3601 25.2566 8.20747C25.4005 7.28456 24.302 7.46502 23.7965 7.70799C23.0009 8.08729 22.2016 8.95902 22.0656 9.85479C20.2762 21.7735 17.5718 33.5211 13.9761 45.0162C13.7329 45.7997 14.1657 46.2352 14.9593 46.0395C15.8016 45.8285 16.7469 44.9109 17.002 44.0867L16.9932 44.0915Z" fill="#DC8539"/>
<path d="M23.5103 9.95202C31.0632 18.2757 40.3739 24.6888 50.1405 30.1447C51.2473 30.7695 53.9478 27.8742 52.5622 27.0945C42.9554 21.722 33.826 15.3692 26.3947 7.18408C25.4746 6.1718 22.5574 8.9007 23.5103 9.95202Z" fill="#DC8539"/>
<path d="M14.1326 46.4244C22.0183 52.6723 29.1327 59.8222 35.324 67.7635C36.1332 68.8024 39.1112 66.1428 38.2084 64.9956C32.0219 57.0631 24.9027 49.9044 17.017 43.6565C15.8728 42.7557 13.1036 45.6087 14.1326 46.4244Z" fill="#DC8539"/>
<path d="M38.5696 65.1967C41.3854 52.6124 46.3158 40.5565 53.0314 29.5515C53.3853 28.9697 53.4687 28.1028 52.6035 28.0641C51.7383 28.0253 50.7828 29.0283 50.3741 29.6972C43.3722 41.1785 38.3129 53.7271 35.3698 66.8488C35.1588 67.7743 36.3682 67.5672 36.8386 67.3435C37.6869 66.9353 38.3626 66.1086 38.5696 65.1967Z" fill="#DC8539"/>
</g>
<defs>
<clipPath id="clip0_11_1346">
<rect width="43.17" height="58.83" fill="white" transform="translate(0 20.7581) rotate(-28.7405)"/>
</clipPath>
</defs>
</svg>
