<svg width="54" height="55" viewBox="0 0 54 55" fill="none" xmlns="http://www.w3.org/2000/svg">
<g clip-path="url(#clip0_14_1777)">
<path d="M21.5704 18.454C20.2143 14.7755 17.8736 10.4932 13.5019 9.97266C8.81613 9.41217 5.27371 13.946 4.14483 17.9552C1.54271 27.1802 9.33803 35.1715 16.6946 39.4038C21.2186 42.0058 26.4848 43.6682 29.8613 47.8371C30.3122 48.396 31.9651 47.1958 31.5294 46.6636C28.7759 43.2693 24.7473 41.4353 20.9098 39.5148C17.0724 37.5942 13.5768 35.3167 10.6657 32.2329C7.75459 29.1492 5.59173 25.4673 5.41815 21.2615C5.33681 19.1807 5.77382 17.0593 6.72922 15.1925C7.55312 13.589 8.83002 11.9152 10.6878 11.4774C12.8948 10.9537 15.1266 12.1504 16.5778 13.71C18.029 15.2696 19.0569 17.3344 19.8047 19.3628C20.0836 20.1193 21.7901 19.0498 21.5704 18.454Z" fill="#FFF5EC" fill-opacity="0.31"/>
<path d="M21.6593 18.5178C22.3552 14.4265 24.5173 10.5627 27.5869 7.72846C29.069 6.36033 30.7916 5.23116 32.6973 4.53937C33.1716 4.3645 33.6612 4.21623 34.1516 4.09986C34.5685 4.00527 35.2715 3.75683 35.698 3.83593C36.1244 3.91502 36.6825 4.32156 37.0493 4.5784C37.4949 4.88673 37.8827 5.25938 38.209 5.6869C39.4407 7.30059 39.519 9.44689 39.2222 11.3877C38.8963 13.5005 38.1796 15.5424 37.4181 17.5365C36.5059 19.919 35.4682 22.2566 34.5887 24.6539C33.7091 27.0513 32.8584 29.6153 32.1161 32.134C30.4913 37.6473 29.2808 43.2656 28.4671 48.9418C28.3357 49.8549 30.1136 48.9792 30.2059 48.3437C30.9691 43.003 32.0869 37.7089 33.5719 32.5103C34.3447 29.8086 35.2133 27.1306 36.1716 24.4893C37.1299 21.848 38.2181 19.4113 39.1917 16.8557C40.0042 14.7194 40.7761 12.5174 41.0363 10.241C41.2694 8.21615 41.114 6.02307 39.78 4.38268C39.1273 3.58672 38.0343 2.67384 37.0002 2.43744C36.5293 2.32639 35.9399 2.48458 35.4665 2.5732C34.8806 2.68177 34.3022 2.8252 33.7359 3.00173C31.5201 3.67896 29.473 4.85795 27.6817 6.3025C23.7374 9.48063 20.7774 14.1327 19.9301 19.1123C19.7773 20.0119 21.5605 19.1504 21.6689 18.5143L21.6593 18.5178Z" fill="#FFF5EC" fill-opacity="0.31"/>
</g>
<defs>
<clipPath id="clip0_14_1777">
<rect width="41" height="43" fill="white" transform="translate(0 14.1821) rotate(-20.2371)"/>
</clipPath>
</defs>
</svg>
