<svg width="68" height="70" viewBox="0 0 68 70" fill="none" xmlns="http://www.w3.org/2000/svg">
<g clip-path="url(#clip0_9_1301)">
<path d="M27.5598 22.6895C26.067 17.8067 23.345 12.0646 17.7351 11.0553C11.7224 9.97014 6.82813 15.591 5.08809 20.7141C1.07837 32.5017 10.5847 43.4783 19.7887 49.5376C25.449 53.2628 32.1338 55.8238 36.2016 61.4977C36.7447 62.2581 38.964 60.8246 38.4387 60.1C35.1211 55.4801 30.0467 52.7904 25.2253 50.0028C20.404 47.2152 16.0493 43.9898 12.5062 39.7614C8.96313 35.533 6.42855 30.5845 6.50016 25.1068C6.54145 22.3972 7.2551 19.6741 8.62039 17.3214C9.79731 15.3008 11.5643 13.2233 13.9945 12.796C16.882 12.2837 19.6803 14.0085 21.445 16.1454C23.2097 18.2823 24.3921 21.0433 25.2153 23.7357C25.5223 24.7399 27.8016 23.4802 27.5598 22.6895Z" fill="#431400"/>
<path d="M27.6701 22.7793C28.8567 17.5165 31.921 12.6611 36.0851 9.21247C38.0956 7.54778 40.3999 6.21189 42.9099 5.45821C43.5348 5.26714 44.1776 5.11179 44.8192 4.99796C45.3643 4.9068 46.2898 4.63757 46.835 4.77281C47.3803 4.90806 48.0725 5.47877 48.5282 5.84042C49.0821 6.27497 49.5567 6.78868 49.9481 7.369C51.4254 9.55943 51.3756 12.354 50.8558 14.8531C50.2862 17.5733 49.217 20.1718 48.0931 22.7046C46.7473 25.7307 45.2427 28.6887 43.9381 31.7366C42.6334 34.7845 41.3543 38.051 40.2184 41.2669C37.732 48.3064 35.7734 55.514 34.3232 62.8268C34.0892 64.0033 36.4472 63.0009 36.6111 62.1822C37.9725 55.3014 39.7886 48.508 42.0722 41.8667C43.2604 38.4153 44.5706 35.002 45.9941 31.6433C47.4177 28.2845 48.9946 25.2015 50.4318 21.9552C51.6315 19.2414 52.7834 16.4392 53.2795 13.5013C53.7231 10.8883 53.6766 8.02705 52.0689 5.79412C51.282 4.71024 49.9344 3.4409 48.6153 3.05499C48.0149 2.87484 47.2426 3.03548 46.6248 3.11455C45.8605 3.21099 45.1033 3.35329 44.3595 3.53952C41.45 4.25065 38.7231 5.62655 36.3077 7.36697C30.9898 11.1958 26.8395 17.0147 25.3948 23.42C25.1343 24.5771 27.498 23.5936 27.6827 22.7754L27.6701 22.7793Z" fill="#431400"/>
</g>
<defs>
<clipPath id="clip0_9_1301">
<rect width="53" height="56" fill="white" transform="translate(0 15.4963) rotate(-17.0007)"/>
</clipPath>
</defs>
</svg>
