<svg width="18" height="18" viewBox="0 0 18 18" fill="none" xmlns="http://www.w3.org/2000/svg">
<path d="M13.2675 3.92244C13.1051 3.92023 12.9457 3.96623 12.8094 4.05461C12.6732 4.143 12.5662 4.26981 12.502 4.41901C12.4378 4.5682 12.4192 4.73308 12.4488 4.8928C12.4783 5.05252 12.5545 5.1999 12.6677 5.31632C12.781 5.43273 12.9262 5.51294 13.0851 5.54681C13.2439 5.58068 13.4093 5.56669 13.5602 5.5066C13.7111 5.44651 13.8407 5.34303 13.9328 5.20923C14.0249 5.07544 14.0753 4.91735 14.0775 4.75494V4.73244C14.0756 4.51822 13.9896 4.31333 13.8381 4.16185C13.6866 4.01036 13.4817 3.9244 13.2675 3.92244Z" stroke="#FFE8E3" stroke-linecap="round" stroke-linejoin="round"/>
<path d="M15.2062 2.0625H2.79375C2.59811 2.06739 2.41212 2.14856 2.2755 2.28869C2.13888 2.42881 2.06244 2.61679 2.0625 2.8125V15.225C2.0625 15.4239 2.14152 15.6147 2.28217 15.7553C2.42282 15.896 2.61359 15.975 2.8125 15.975H15.225C15.4239 15.975 15.6147 15.896 15.7553 15.7553C15.896 15.6147 15.975 15.4239 15.975 15.225V2.79375C15.9726 2.69525 15.9507 2.59819 15.9108 2.50812C15.8708 2.41806 15.8135 2.33675 15.7421 2.26884C15.6707 2.20093 15.5867 2.14775 15.4947 2.11235C15.4028 2.07694 15.3047 2.06 15.2062 2.0625V2.0625Z" stroke="#FFE8E3" stroke-linecap="round" stroke-linejoin="round"/>
<path d="M8.99999 5.89502C8.38588 5.89502 7.78556 6.07712 7.27494 6.41831C6.76433 6.75949 6.36635 7.24442 6.13134 7.81179C5.89633 8.37915 5.83485 9.00346 5.95465 9.60578C6.07446 10.2081 6.37018 10.7613 6.80442 11.1956C7.23867 11.6298 7.79192 11.9256 8.39423 12.0454C8.99655 12.1652 9.62086 12.1037 10.1882 11.8687C10.7556 11.6337 11.2405 11.2357 11.5817 10.7251C11.9229 10.2145 12.105 9.61413 12.105 9.00002V9.00002C12.105 8.17652 11.7779 7.38675 11.1956 6.80445C10.6133 6.22215 9.82349 5.89502 8.99999 5.89502V5.89502Z" stroke="#FFE8E3" stroke-linecap="round" stroke-linejoin="round"/>
</svg>
