<svg width="86" height="22" viewBox="0 0 86 22" fill="none" xmlns="http://www.w3.org/2000/svg">
<path d="M37.8267 15.7782C39.2734 17.9215 41.6571 19.2625 44.1614 19.7983C47.0958 20.4239 50.1508 19.9125 52.9291 18.8898C55.4827 17.9487 58.0555 16.5914 60.02 14.6902C61.653 13.1126 63.2175 10.6945 62.6695 8.32543C62.4174 7.23472 61.6147 6.38064 60.4392 6.34528C59.0802 6.30176 57.7925 7.20752 57.1787 8.37439C55.9156 10.7788 56.8116 13.711 58.7624 15.4627C60.7982 17.2932 63.6641 17.9895 66.3574 17.859C69.3193 17.7148 72.1716 16.6758 74.6594 15.1036C77.1472 13.5315 79.2433 11.5024 81.1941 9.34814C83.1449 7.19392 84.9752 4.99617 85.715 2.24899C85.8903 1.59892 85.9862 0.935243 85.9999 0.263408C86.0109 -0.209869 84.8492 0.0267693 84.8409 0.407566C84.7807 3.03507 83.408 5.34161 81.8078 7.35168C80.1803 9.39438 78.3446 11.3364 76.3307 13.012C74.3279 14.682 72.051 16.0692 69.5111 16.7601C67.0561 17.4292 64.3628 17.4319 62.0092 16.3956C59.7953 15.4219 58.0007 13.5233 57.7678 11.0536C57.6582 9.89486 57.9267 8.56751 58.735 7.68351C59.0473 7.34352 59.4994 6.97088 59.9899 6.98992C60.4803 7.00896 60.8694 7.32448 61.1352 7.69439C61.7105 8.50223 61.716 9.62558 61.4941 10.5504C61.2283 11.6656 60.6776 12.6801 59.957 13.5723C58.4665 15.4246 56.3321 16.7166 54.1922 17.7066C51.7071 18.8545 48.9836 19.6161 46.2218 19.3903C43.934 19.2026 41.6379 18.2778 39.9857 16.6758C39.5665 16.2705 39.1939 15.8217 38.8679 15.3403C38.6569 15.0302 37.5582 15.4001 37.8157 15.7809H37.8267V15.7782Z" fill="#AE5C14" fill-opacity="0.43"/>
<path d="M16.4945 21.4861C16.5371 21.4861 16.5584 21.5289 16.5584 21.6146C16.5584 21.7002 16.5371 21.7431 16.4945 21.7431C16.0546 21.7431 15.707 21.7359 15.4516 21.7216L13.9831 21.7002L12.621 21.7216C12.3939 21.7359 12.0747 21.7431 11.6632 21.7431C11.6348 21.7431 11.6206 21.7002 11.6206 21.6146C11.6206 21.5289 11.6348 21.4861 11.6632 21.4861C12.1456 21.4861 12.5003 21.4504 12.7274 21.3791C12.9686 21.2934 13.1247 21.1507 13.1956 20.9508C13.2807 20.751 13.3091 20.4369 13.2807 20.0087L12.8976 10.2664L8.04506 21.5932C8.01668 21.6503 7.95993 21.6788 7.87479 21.6788C7.80385 21.6788 7.74 21.6503 7.68325 21.5932L2.44757 10.3949L2.25602 19.4092C2.24183 20.1657 2.36953 20.701 2.63912 21.0151C2.90871 21.3291 3.38403 21.4861 4.0651 21.4861C4.09347 21.4861 4.10766 21.5289 4.10766 21.6146C4.10766 21.7002 4.09347 21.7431 4.0651 21.7431C3.66781 21.7431 3.36275 21.7359 3.14992 21.7216L2.00062 21.7002L0.893896 21.7216C0.695252 21.7359 0.411476 21.7431 0.0425665 21.7431C0.0141888 21.7431 0 21.7002 0 21.6146C0 21.5289 0.0141888 21.4861 0.0425665 21.4861C0.638497 21.4861 1.06416 21.3291 1.31956 21.0151C1.58915 20.6868 1.73104 20.1515 1.74522 19.4092L1.93677 9.47416C1.51111 8.90319 0.929368 8.6177 0.191549 8.6177C0.163171 8.6177 0.148983 8.57487 0.148983 8.48923C0.148983 8.40358 0.163171 8.36076 0.191549 8.36076L0.979029 8.38217C1.12092 8.39644 1.31956 8.40358 1.57496 8.40358C1.83036 8.40358 2.04319 8.39644 2.21346 8.38217C2.39791 8.36789 2.5398 8.36076 2.63912 8.36076C2.82358 8.36076 2.97256 8.43213 3.08607 8.57487C3.21377 8.70334 3.39113 9.00311 3.61815 9.47416L8.36431 19.5377L13.0041 8.89605C13.1601 8.53919 13.373 8.36076 13.6425 8.36076C13.7135 8.36076 13.8128 8.36789 13.9405 8.38217C14.0824 8.39644 14.2669 8.40358 14.4939 8.40358L15.4942 8.38217C15.6503 8.36789 15.8844 8.36076 16.1965 8.36076C16.2391 8.36076 16.2604 8.40358 16.2604 8.48923C16.2604 8.57487 16.2391 8.6177 16.1965 8.6177C15.4871 8.6177 14.9763 8.72475 14.6641 8.93887C14.3662 9.13871 14.2243 9.52412 14.2385 10.0951L14.6641 20.0087C14.6783 20.4512 14.728 20.7724 14.8131 20.9722C14.9124 21.1721 15.0827 21.3077 15.3239 21.3791C15.5651 21.4504 15.9553 21.4861 16.4945 21.4861Z" fill="#FFE8E3"/>
<path d="M28.8374 21.4861C28.8942 21.4861 28.9226 21.5289 28.9226 21.6146C28.9226 21.7002 28.8942 21.7431 28.8374 21.7431C28.582 21.7431 28.1706 21.7288 27.603 21.7002C27.0355 21.6717 26.624 21.6574 26.3686 21.6574C26.1416 21.6574 25.8436 21.6717 25.4747 21.7002C25.1058 21.7288 24.822 21.7431 24.6234 21.7431C24.5666 21.7431 24.5382 21.7002 24.5382 21.6146C24.5382 21.5289 24.5666 21.4861 24.6234 21.4861C24.9923 21.4861 25.2619 21.4433 25.4321 21.3576C25.6166 21.2577 25.7088 21.0864 25.7088 20.8438C25.7088 20.6297 25.6237 20.3299 25.4534 19.9445L24.0062 16.8184H21.0265L20.1113 19.1094C19.8843 19.6519 19.7708 20.1015 19.7708 20.4584C19.7708 20.8295 19.8985 21.0936 20.1539 21.2506C20.4093 21.4076 20.7995 21.4861 21.3245 21.4861C21.3954 21.4861 21.4309 21.5289 21.4309 21.6146C21.4309 21.7002 21.3954 21.7431 21.3245 21.7431C21.1116 21.7431 20.8208 21.7288 20.4519 21.7002C20.0546 21.6717 19.6857 21.6574 19.3451 21.6574C18.9904 21.6574 18.5718 21.6717 18.0894 21.7002C17.6637 21.7288 17.3232 21.7431 17.0678 21.7431C16.9969 21.7431 16.9614 21.7002 16.9614 21.6146C16.9614 21.5289 16.9969 21.4861 17.0678 21.4861C17.5077 21.4861 17.8553 21.429 18.1107 21.3148C18.3661 21.1864 18.6002 20.9437 18.813 20.5868C19.0401 20.23 19.3097 19.6733 19.6218 18.9167L22.6866 11.4012C22.715 11.3441 22.7575 11.3156 22.8143 11.3156C22.871 11.3156 22.9065 11.3441 22.9207 11.4012L26.3473 18.8097C26.7162 19.609 27.0071 20.1871 27.2199 20.544C27.4469 20.9009 27.674 21.1507 27.901 21.2934C28.1422 21.4219 28.4543 21.4861 28.8374 21.4861ZM21.1755 16.433H23.8359L22.4099 13.3497L21.1755 16.433Z" fill="#FFE8E3"/>
<path d="M35.4904 16.1974C36.512 16.2688 37.2995 16.5115 37.8529 16.9254C38.4063 17.3394 38.6829 17.9318 38.6829 18.7026C38.6829 19.6304 38.314 20.387 37.5762 20.9722C36.8384 21.5432 35.8877 21.8287 34.7243 21.8287C34.3553 21.8287 33.9226 21.8073 33.426 21.7645C33.2273 21.7502 32.9932 21.7359 32.7236 21.7216C32.454 21.7074 32.1632 21.7002 31.851 21.7002L30.6166 21.7216C30.3754 21.7359 30.049 21.7431 29.6376 21.7431C29.6092 21.7431 29.595 21.7002 29.595 21.6146C29.595 21.5289 29.6092 21.4861 29.6376 21.4861C30.12 21.4861 30.4676 21.4504 30.6804 21.3791C30.9075 21.3077 31.0564 21.1721 31.1274 20.9722C31.2125 20.7581 31.2551 20.4369 31.2551 20.0087V13.4567C31.2551 13.0285 31.2125 12.7145 31.1274 12.5146C31.0564 12.3148 30.9075 12.1792 30.6804 12.1078C30.4676 12.0222 30.1271 11.9793 29.6588 11.9793C29.6305 11.9793 29.6163 11.9365 29.6163 11.8509C29.6163 11.7652 29.6305 11.7224 29.6588 11.7224L30.6166 11.7438C31.1558 11.7724 31.5672 11.7866 31.851 11.7866C32.2341 11.7866 32.6243 11.7652 33.0216 11.7224C33.1635 11.7081 33.3621 11.6938 33.6175 11.6796C33.8871 11.6653 34.1212 11.6582 34.3199 11.6582C35.3415 11.6582 36.136 11.8437 36.7036 12.2149C37.2711 12.586 37.5549 13.107 37.5549 13.7779C37.5549 14.3346 37.3705 14.8271 37.0016 15.2553C36.6326 15.6693 36.1289 15.9833 35.4904 16.1974ZM33.7665 11.9365C33.426 11.9365 33.1706 11.9793 33.0003 12.065C32.83 12.1363 32.7094 12.2862 32.6385 12.5146C32.5676 12.7287 32.5321 13.0571 32.5321 13.4996V16.1974C32.7733 16.2117 33.1138 16.2188 33.5537 16.2188C34.4901 16.2188 35.1641 16.0904 35.5756 15.8334C36.0012 15.5622 36.2141 15.0269 36.2141 14.2276C36.2141 13.4282 36.0083 12.8501 35.5969 12.4932C35.1854 12.1221 34.5753 11.9365 33.7665 11.9365ZM34.3412 21.4861C36.2992 21.4861 37.2782 20.7224 37.2782 19.1951C37.2782 18.3814 36.9803 17.7391 36.3843 17.268C35.7884 16.797 34.8732 16.5614 33.6388 16.5614C33.1422 16.5614 32.7733 16.5757 32.5321 16.6043V20.0087C32.5321 20.5511 32.6527 20.9366 32.8939 21.1649C33.1493 21.3791 33.6317 21.4861 34.3412 21.4861Z" fill="#FFE8E3"/>
<path d="M48.2614 18.8953C48.2614 18.8525 48.2969 18.8311 48.3678 18.8311C48.4529 18.8311 48.4955 18.8525 48.4955 18.8953C48.3962 19.9231 48.3465 20.7653 48.3465 21.4219C48.3465 21.5361 48.3252 21.6217 48.2827 21.6788C48.2401 21.7216 48.155 21.7431 48.0273 21.7431H40.2376C40.2092 21.7431 40.195 21.7002 40.195 21.6146C40.195 21.5289 40.2092 21.4861 40.2376 21.4861C40.7058 21.4861 41.0464 21.4504 41.2592 21.3791C41.472 21.3077 41.6139 21.1721 41.6849 20.9722C41.77 20.7581 41.8126 20.4369 41.8126 20.0087V13.4567C41.8126 13.0285 41.77 12.7145 41.6849 12.5146C41.6139 12.3148 41.472 12.1792 41.2592 12.1078C41.0464 12.0222 40.7058 11.9793 40.2376 11.9793C40.2092 11.9793 40.195 11.9365 40.195 11.8509C40.195 11.7652 40.2092 11.7224 40.2376 11.7224H47.6442C47.7861 11.7224 47.857 11.7795 47.857 11.8937L47.8783 13.2212C47.8925 13.4924 47.8996 13.835 47.8996 14.249C47.8996 14.2918 47.857 14.3132 47.7719 14.3132C47.6867 14.3132 47.6442 14.2918 47.6442 14.249C47.5874 13.5923 47.3462 13.0571 46.9205 12.6431C46.5091 12.2149 45.9983 12.0007 45.3881 12.0007H44.7922C44.2956 12.0007 43.9338 12.0436 43.7068 12.1292C43.4798 12.2006 43.3237 12.3362 43.2385 12.536C43.1534 12.7359 43.1108 13.0499 43.1108 13.4781V16.4116C44.4872 16.3973 45.4236 16.3616 45.9202 16.3045C46.431 16.2331 46.7219 16.1974 46.7928 16.1974C46.8638 16.1974 46.8993 16.3473 46.8993 16.6471C46.8993 16.9754 46.8638 17.1395 46.7928 17.1395C46.7361 17.1395 46.4523 17.1039 45.9415 17.0325C45.4307 16.9468 44.4872 16.8897 43.1108 16.8612V19.9231C43.1108 20.337 43.1534 20.6511 43.2385 20.8652C43.3237 21.065 43.4798 21.2078 43.7068 21.2934C43.948 21.3648 44.3098 21.4005 44.7922 21.4005H45.8138C46.3814 21.4005 46.8922 21.1721 47.3462 20.7153C47.8002 20.2442 48.1053 19.6376 48.2614 18.8953Z" fill="#FFE8E3"/>
<path d="M52.9834 19.9231C52.9834 20.337 53.0189 20.6439 53.0899 20.8438C53.175 21.0436 53.324 21.1864 53.5368 21.272C53.7638 21.3576 54.0973 21.4005 54.5371 21.4005H55.9418C56.6938 21.4005 57.2897 21.1649 57.7296 20.6939C58.1836 20.2228 58.4887 19.5733 58.6448 18.7454C58.6448 18.7169 58.6732 18.7026 58.7299 18.7026C58.7725 18.7026 58.8079 18.7097 58.8363 18.724C58.8789 18.7383 58.9002 18.7597 58.9002 18.7882C58.8008 19.4449 58.7512 20.3228 58.7512 21.4219C58.7512 21.5361 58.7228 21.6217 58.6661 21.6788C58.6235 21.7216 58.5454 21.7431 58.4319 21.7431H50.1102C50.0818 21.7431 50.0676 21.7002 50.0676 21.6146C50.0676 21.5289 50.0818 21.4861 50.1102 21.4861C50.5784 21.4861 50.919 21.4504 51.1318 21.3791C51.3446 21.3077 51.4865 21.1721 51.5575 20.9722C51.6284 20.7581 51.6639 20.4369 51.6639 20.0087V13.4567C51.6639 13.0285 51.6213 12.7145 51.5362 12.5146C51.4652 12.3148 51.3233 12.1792 51.1105 12.1078C50.8977 12.0222 50.5642 11.9793 50.1102 11.9793C50.0818 11.9793 50.0676 11.9365 50.0676 11.8509C50.0676 11.7652 50.0818 11.7224 50.1102 11.7224L51.0679 11.7438C51.6071 11.7724 52.0257 11.7866 52.3237 11.7866C52.6784 11.7866 53.1253 11.7724 53.6645 11.7438L54.5584 11.7224C54.601 11.7224 54.6222 11.7652 54.6222 11.8509C54.6222 11.9365 54.601 11.9793 54.5584 11.9793C54.0902 11.9793 53.7496 12.0222 53.5368 12.1078C53.324 12.1792 53.175 12.3219 53.0899 12.536C53.0189 12.7359 52.9834 13.0499 52.9834 13.4781V19.9231Z" fill="#FFE8E3"/>
<path d="M59.4594 8.18946C59.885 8.18946 60.2185 8.35362 60.4597 8.68193C60.7009 8.99597 60.8215 9.45275 60.8215 10.0523C60.8215 10.6233 60.6938 11.1585 60.4384 11.6582C60.183 12.1435 59.807 12.6288 59.3104 13.1142C59.2962 13.1284 59.2749 13.1356 59.2465 13.1356C59.204 13.1356 59.1685 13.1142 59.1401 13.0713C59.1117 13.0285 59.1117 12.9928 59.1401 12.9643C59.8354 12.2505 60.183 11.4084 60.183 10.4377C60.183 10.038 60.112 9.74538 59.9701 9.55981C59.8425 9.77393 59.6225 9.88099 59.3104 9.88099C59.055 9.88099 58.8492 9.80248 58.6932 9.64546C58.5513 9.48844 58.4803 9.2886 58.4803 9.04593C58.4803 8.47495 58.8067 8.18946 59.4594 8.18946Z" fill="#FFE8E3"/>
<path d="M64.4024 10.8659C64.4024 11.4226 64.5372 11.908 64.8068 12.3219C65.0764 12.7359 65.4027 13.0856 65.7858 13.3711C66.1689 13.6423 66.7081 13.992 67.4033 14.4203C68.1411 14.8628 68.7158 15.2339 69.1273 15.5337C69.5387 15.8334 69.8864 16.2188 70.1701 16.6899C70.4681 17.1467 70.6171 17.6963 70.6171 18.3386C70.6171 19.0238 70.4468 19.6447 70.1063 20.2014C69.7658 20.7581 69.2621 21.2006 68.5952 21.5289C67.9425 21.843 67.155 22 66.2327 22C65.1402 22 64.1399 21.7502 63.2318 21.2506C63.1609 21.2078 63.1112 21.1578 63.0828 21.1007C63.0686 21.0436 63.0544 20.958 63.0403 20.8438L62.7636 17.9318C62.7494 17.8747 62.7778 17.839 62.8487 17.8247C62.9338 17.8104 62.9835 17.8319 62.9977 17.889C63.2247 18.9167 63.6433 19.8017 64.2534 20.544C64.8777 21.2863 65.7007 21.6574 66.7223 21.6574C67.4317 21.6574 68.0276 21.4647 68.5101 21.0793C69.0067 20.6796 69.255 20.0515 69.255 19.1951C69.255 18.5527 69.1131 17.996 68.8293 17.525C68.5455 17.0539 68.1979 16.6685 67.7864 16.3687C67.3891 16.0547 66.8429 15.6907 66.1476 15.2767C65.4665 14.8628 64.9274 14.5059 64.5301 14.2061C64.147 13.9064 63.8206 13.5281 63.5511 13.0713C63.2815 12.6145 63.1467 12.0793 63.1467 11.4655C63.1467 10.7517 63.3311 10.1451 63.7 9.64546C64.0831 9.13158 64.5727 8.7533 65.1686 8.51064C65.7787 8.2537 66.4243 8.12523 67.1054 8.12523C67.9425 8.12523 68.7725 8.29652 69.5955 8.63911C69.8083 8.71048 69.9147 8.83181 69.9147 9.00311L70.0637 11.4655C70.0637 11.5225 70.0283 11.5511 69.9573 11.5511C69.8864 11.5511 69.8438 11.5225 69.8296 11.4655C69.7161 10.7232 69.411 10.038 68.9144 9.40993C68.4178 8.76758 67.7013 8.4464 66.7648 8.4464C65.9703 8.4464 65.3743 8.68193 64.977 9.15299C64.5939 9.60977 64.4024 10.1807 64.4024 10.8659Z" fill="#FFE8E3"/>
</svg>
