<svg width="41" height="43" viewBox="0 0 41 43" fill="none" xmlns="http://www.w3.org/2000/svg">
<g clip-path="url(#clip0_14_1759)">
<path d="M12.3447 20.8832C15.501 15.6615 18.6572 10.4398 21.8135 5.21813C22.7078 3.73651 23.6112 2.25747 24.4868 0.763136C24.6085 0.559323 24.6349 0.261753 24.3336 0.248817C24.0323 0.235881 23.7123 0.589688 23.5679 0.821794C20.3433 6.00439 17.2357 11.2646 14.0794 16.4863L11.3864 20.9407C11.2576 21.1524 11.2364 21.4663 11.5483 21.4773C11.8601 21.4882 12.2006 21.1228 12.3489 20.8769L12.3447 20.8832Z" fill="#FFF5EC" fill-opacity="0.31"/>
<path d="M23.5489 1.11897C26.9253 7.32222 30.2429 13.5585 33.4969 19.8265C34.4277 21.6162 35.3497 23.4109 36.2716 25.2056C36.5151 25.6809 37.525 24.8121 37.3281 24.4269C34.1093 18.139 30.8288 11.8859 27.4877 5.66282C26.5334 3.88629 25.5715 2.11013 24.6084 0.338561C24.3515 -0.133048 23.3449 0.741608 23.5519 1.11732L23.5489 1.11897Z" fill="#FFF5EC" fill-opacity="0.31"/>
<path d="M11.4196 21.3791C18.0876 21.94 24.6432 23.3347 31.2031 24.5992C33.0424 24.9535 34.8873 25.297 36.7354 25.6116C37.031 25.6626 37.3262 25.4233 37.4953 25.2006C37.5807 25.0908 37.8378 24.625 37.5422 24.574C30.8935 23.4407 24.3104 21.9143 17.6311 20.9608C15.7642 20.6955 13.892 20.4758 12.0123 20.3184C11.5906 20.284 10.7929 21.3241 11.4179 21.3762L11.4196 21.3791Z" fill="#FFF5EC" fill-opacity="0.31"/>
<path d="M23.3782 0.994015C22.1225 6.555 20.9555 12.136 19.8737 17.7311C19.5651 19.3255 19.2657 20.9226 18.9708 22.5209C18.9133 22.8321 19.3044 22.7637 19.4682 22.6833C19.7472 22.5461 19.9888 22.2595 20.0451 21.953C21.0779 16.3466 22.1931 10.756 23.3999 5.18374C23.7436 3.59667 24.0949 2.00926 24.4508 0.423131C24.5218 0.108333 24.1084 0.185366 23.9534 0.260743C23.6656 0.402885 23.4479 0.683814 23.3765 0.991069L23.3782 0.994015Z" fill="#FFF5EC" fill-opacity="0.31"/>
<path d="M22.4843 2.48321C23.0037 7.9737 23.6363 13.4588 24.3887 18.9232C24.6008 20.4733 24.8233 22.0214 25.0534 23.5692C25.0964 23.8665 25.5621 23.6207 25.682 23.5379C25.9055 23.3777 26.1559 23.0861 26.1129 22.7888C25.2989 17.3319 24.5959 11.8592 24.0132 6.37323C23.8477 4.81635 23.6913 3.26205 23.5438 1.7028C23.5142 1.40184 23.0233 1.65792 22.9152 1.7341C22.6816 1.90391 22.4576 2.1806 22.4843 2.48321Z" fill="#FFF5EC" fill-opacity="0.31"/>
<path d="M24.7735 23.3738C24.6395 25.0174 24.4202 26.647 24.2331 28.2856C24.1987 28.5759 24.5348 28.5268 24.7029 28.4402C24.9639 28.3054 25.199 28.0417 25.2498 27.746C25.5251 26.1199 25.6768 24.4663 25.8108 22.8227C25.8343 22.5268 25.5087 22.574 25.3318 22.6655C25.0872 22.795 24.7971 23.0778 24.7735 23.3738Z" fill="#FFF5EC" fill-opacity="0.31"/>
<path d="M19.5816 22.7477C21.1931 24.992 22.7484 27.2948 24.4461 29.4791C24.7103 29.8188 25.615 28.9626 25.3641 28.5845C23.8314 26.2805 22.1431 24.0716 20.527 21.826C20.2793 21.481 19.2999 22.3559 19.5816 22.7477Z" fill="#FFF5EC" fill-opacity="0.31"/>
<path d="M26.0121 27.9807C26.2532 27.2451 26.5236 26.5202 26.8232 25.806C27.1227 25.0919 27.4734 24.4342 27.7998 23.7128C27.8952 23.4966 27.7571 23.3263 27.537 23.3684C27.2569 23.421 27.0102 23.664 26.872 23.9003C26.4612 24.5956 26.1353 25.3594 25.8204 26.1015C25.5056 26.8436 25.2424 27.5606 24.9987 28.3053C24.9683 28.396 24.9463 28.5361 25.024 28.6125C25.1017 28.689 25.24 28.6734 25.3323 28.6448C25.6197 28.5571 25.9187 28.2693 26.015 27.979L26.0121 27.9807Z" fill="#FFF5EC" fill-opacity="0.31"/>
<path d="M26.0762 25.7022C26.238 25.17 26.4044 24.639 26.5645 24.1038C26.589 24.0165 26.6133 23.8944 26.5402 23.8192C26.4671 23.7441 26.341 23.7606 26.2562 23.7888C26.1135 23.8379 25.9801 23.9244 25.878 24.032C25.7759 24.1397 25.6699 24.2611 25.627 24.4052C25.4577 24.9378 25.293 25.4718 25.1283 26.0057C25.1008 26.0947 25.0781 26.2197 25.1513 26.2949C25.2244 26.37 25.3551 26.3547 25.4399 26.3265C25.5826 26.2774 25.7189 26.1894 25.8239 26.0801C25.929 25.9708 26.0333 25.8464 26.0762 25.7022Z" fill="#FFF5EC" fill-opacity="0.31"/>
<path d="M25.0523 27.0012L24.9761 27.1136C24.8914 27.2386 25.0311 27.0324 24.9634 27.1324L25.7633 27.0824C25.9916 26.1101 26.2566 25.1481 26.5383 24.1883C26.5628 24.101 26.5872 23.9789 26.5141 23.9037C26.4409 23.8286 26.3148 23.8452 26.23 23.8734C25.9669 23.9629 25.6829 24.2153 25.5979 24.4914C25.3007 25.4443 25.0466 26.4118 24.8229 27.3855C24.8056 27.4649 24.7669 27.6028 24.8472 27.67C24.9134 27.7259 24.992 27.7282 25.0759 27.7121C25.3467 27.657 25.5703 27.4347 25.7089 27.2059C25.7635 27.1171 25.8215 27.0343 25.8748 26.9501C25.9761 26.7926 26.0103 26.4675 25.7363 26.4895C25.4385 26.5172 25.2059 26.7717 25.0493 27.0028L25.0523 27.0012Z" fill="#FFF5EC" fill-opacity="0.31"/>
<path d="M26.458 24.9692C26.481 24.4722 26.5039 23.9752 26.5147 23.4773C26.5146 23.3806 26.4893 23.2941 26.3907 23.2564C26.2922 23.2188 26.1378 23.2745 26.0495 23.324C25.9082 23.4033 25.7743 23.5094 25.6779 23.641C25.5984 23.7475 25.5183 23.8738 25.5098 24.0102C25.4764 24.5092 25.4597 25.0104 25.4384 25.5103C25.4356 25.6087 25.4655 25.6965 25.564 25.7342C25.6625 25.7718 25.8199 25.7145 25.9082 25.6649C26.0524 25.584 26.1893 25.4763 26.284 25.3417C26.3635 25.2352 26.4495 25.1056 26.4564 24.9662L26.458 24.9692Z" fill="#FFF5EC" fill-opacity="0.31"/>
<path d="M25.9104 24.3587C26.1784 24.4639 26.4463 24.5691 26.7186 24.6681C26.7691 24.6823 26.8235 24.6828 26.8756 24.6652C26.9401 24.6561 27.001 24.6336 27.0598 24.6005C27.1304 24.5609 27.1948 24.517 27.2542 24.4643C27.3212 24.4113 27.3803 24.351 27.4314 24.2836L27.5173 24.154C27.5606 24.0794 27.5901 24.0009 27.5995 23.9143L27.5918 23.8179C27.5739 23.7583 27.5357 23.7178 27.4743 23.698C27.2105 23.5865 26.9425 23.4813 26.6791 23.3774C26.624 23.3618 26.5742 23.3627 26.5221 23.3803C26.4576 23.3894 26.3938 23.4136 26.3349 23.4466C26.2643 23.4862 26.197 23.5317 26.1376 23.5845C26.0706 23.6375 26.0115 23.6978 25.9575 23.7668L25.8715 23.8964C25.8283 23.971 25.8004 24.0525 25.7864 24.1378L25.7928 24.2388C25.8124 24.3013 25.8506 24.3419 25.912 24.3616L25.9104 24.3587Z" fill="#FFF5EC" fill-opacity="0.31"/>
<path d="M9.77629 27.6765L9.17775 29.8093C9.15324 29.8966 9.12724 30.0158 9.20036 30.0909C9.27018 30.1602 9.39962 30.1495 9.4798 30.12C9.61955 30.0726 9.74996 29.9878 9.85206 29.8801C9.95417 29.7725 10.0618 29.654 10.0988 29.5132L10.7003 27.3787C10.7248 27.2914 10.7508 27.1722 10.6777 27.0971C10.6079 27.0278 10.4785 27.0385 10.3983 27.068C10.2585 27.1154 10.1281 27.2002 10.026 27.3079C9.9239 27.4155 9.81628 27.534 9.77923 27.6748L9.77629 27.6765Z" fill="#FFF5EC" fill-opacity="0.31"/>
<path d="M15.4674 27.6549L14.3777 31.5466C14.3532 31.6339 14.3272 31.7531 14.402 31.8312C14.4718 31.9004 14.6012 31.8898 14.686 31.8615C14.9433 31.7753 15.2378 31.5209 15.3139 31.2497L16.4065 27.3565C16.431 27.2691 16.4553 27.147 16.3822 27.0719C16.3108 26.9997 16.183 27.0133 16.0982 27.0415C15.8409 27.1278 15.5435 27.3837 15.469 27.6579L15.4674 27.6549Z" fill="#FFF5EC" fill-opacity="0.31"/>
<path d="M27.7467 29.0171C27.4508 30.3102 27.1565 31.6061 26.8636 32.8975C26.8407 32.9878 26.8101 33.1056 26.8878 33.1821C26.9593 33.2543 27.09 33.239 27.1719 33.2125C27.4186 33.1282 27.74 32.8665 27.804 32.5944C28.1028 31.2997 28.3971 30.0038 28.693 28.7108C28.7142 28.6175 28.7465 28.5026 28.6701 28.4216C28.5986 28.3494 28.4662 28.3617 28.3814 28.3899C28.1317 28.4758 27.8074 28.7391 27.7434 29.0113L27.7467 29.0171Z" fill="#FFF5EC" fill-opacity="0.31"/>
<path d="M36.7027 27.4771C36.3473 28.6641 35.9948 29.8494 35.6394 31.0364C35.6149 31.1237 35.5876 31.2475 35.6607 31.3226C35.7338 31.3978 35.8646 31.3825 35.9477 31.3514C36.2108 31.2618 36.4978 31.0078 36.5827 30.7317C36.9411 29.543 37.2965 28.356 37.6519 27.1691C37.6794 27.0801 37.7021 26.955 37.629 26.8799C37.5558 26.8047 37.4251 26.82 37.3403 26.8482C37.0743 26.9394 36.7843 27.1951 36.7011 27.4741L36.7027 27.4771Z" fill="#FFF5EC" fill-opacity="0.31"/>
</g>
<defs>
<clipPath id="clip0_14_1759">
<rect width="28" height="33" fill="white" transform="translate(0 13.7019) rotate(-29.2983)"/>
</clipPath>
</defs>
</svg>
