<svg width="39" height="46" viewBox="0 0 39 46" fill="none" xmlns="http://www.w3.org/2000/svg">
<g clip-path="url(#clip0_14_1756)">
<path d="M18.542 12.8493C16.6973 11.42 14.6036 9.75607 14.3397 7.26622C14.2265 6.19809 14.4815 5.10286 15.2334 4.31276C15.8857 3.62212 16.8272 3.3218 17.7541 3.23902C18.7334 3.15028 19.7243 3.30098 20.6753 3.51988C21.9284 3.80771 23.1572 4.20237 24.341 4.70211C26.7042 5.70331 28.905 7.10041 30.7933 8.83619C32.3537 10.2717 33.9602 12.0574 34.277 14.2324C34.4323 15.2937 34.1631 16.3722 33.5287 17.2375C32.8536 18.1564 31.8657 18.7815 30.8604 19.289C29.7085 19.8723 28.4842 20.3251 27.29 20.8157L23.3653 22.4287C21.2232 23.3093 19.0098 24.2233 17.2979 25.8316C15.6791 27.3555 14.8748 29.5088 15.3473 31.7113C15.8358 33.9847 17.6944 35.7398 19.9185 36.3332C20.5003 36.49 21.0992 36.5652 21.6984 36.5731C21.8968 36.5763 22.3023 36.5119 22.2278 36.2277C22.1534 35.9436 21.6491 35.8805 21.4315 35.8725C19.0753 35.7875 17.1868 33.9023 16.7311 31.6608C16.2753 29.4192 17.4045 27.1315 19.2338 25.7155C21.2285 24.1714 23.6881 23.3237 25.9978 22.3763C27.3308 21.828 28.6638 21.2796 29.9968 20.7312C31.1308 20.2646 32.2786 19.7825 33.293 19.0871C34.2357 18.4426 35.0353 17.6161 35.453 16.5407C35.8351 15.5568 35.7941 14.4698 35.4883 13.4685C34.8219 11.2859 33.1018 9.5404 31.4141 8.08587C29.4036 6.34396 27.0811 4.94804 24.6035 3.97248C22.3768 3.0937 19.8884 2.35156 17.4716 2.49985C15.3601 2.62612 13.2807 3.66854 12.9476 5.94542C12.5818 8.43209 14.2409 10.5032 16.0135 12.026C16.4874 12.435 16.9831 12.8178 17.4788 13.2006C17.7282 13.3926 18.1826 13.4557 18.4723 13.3453C18.7492 13.24 18.7746 13.0306 18.542 12.8493Z" fill="#FFF5EC" fill-opacity="0.31"/>
<path d="M15.3345 39.8773C14.744 40.4736 14.8629 41.3949 15.2984 42.0433C15.8599 42.8806 16.9934 43.1563 17.9438 43.0267C18.3834 42.9662 18.8141 42.8096 19.1901 42.5727C19.371 42.4583 19.539 42.3241 19.6945 42.1775C19.8499 42.0309 20.0987 41.8248 20.0716 41.5965C20.025 41.2141 19.6969 40.7894 19.4315 40.5266C19.0972 40.1915 18.6937 39.9264 18.258 39.7363C17.0854 39.2272 15.7575 39.2306 14.5081 39.3423C14.3154 39.3592 14.0421 39.498 14.1745 39.7217C14.3069 39.9454 14.6968 40.0341 14.9403 40.0318C15.7674 40.0236 16.6603 39.9369 17.3735 40.2032C17.9546 40.42 18.503 40.9213 18.6917 41.5883L18.7185 41.4008C18.4562 41.7468 18.1134 42.0477 17.702 42.2091C17.6246 42.2399 17.4965 42.281 17.4445 42.2942C17.4561 42.2921 17.3413 42.3104 17.3181 42.3147L17.2497 42.3245C17.2966 42.3233 17.3009 42.3216 17.2497 42.3245C17.1998 42.3245 17.094 42.3218 17.2015 42.3288C17.1839 42.3283 17.0087 42.296 17.0935 42.3145C17.1723 42.3304 16.9842 42.2783 16.9872 42.2796C17.0789 42.3153 16.9411 42.2457 16.9764 42.2715C16.6987 42.0708 16.4693 41.7488 16.3783 41.3616C16.2873 40.9745 16.3869 40.5588 16.6789 40.2682C16.9031 40.0444 16.3895 39.8032 16.2445 39.7589C15.9592 39.6758 15.5586 39.6535 15.3332 39.8803L15.3345 39.8773Z" fill="#FFF5EC" fill-opacity="0.31"/>
</g>
<defs>
<clipPath id="clip0_14_1756">
<rect width="25" height="39" fill="white" transform="translate(15.3506) rotate(23.1791)"/>
</clipPath>
</defs>
</svg>
