<svg width="71" height="77" viewBox="0 0 71 77" fill="none" xmlns="http://www.w3.org/2000/svg">
<g clip-path="url(#clip0_9_1297)">
<path d="M4.09 26.93L12.41 14.07L16.44 7.85C17.86 5.66 19.45 3.51 20.68 1.21C21.13 0.380003 20.29 0.0300034 19.57 3.39048e-06C18.63 -0.0399966 17.44 0.350003 16.86 1.12C15.27 3.22 13.94 5.55 12.51 7.76L8.48 13.98L0.150003 26.84C-0.389997 27.67 0.620003 28.05 1.3 28.08C2.21 28.12 3.56 27.74 4.09 26.92V26.93Z" fill="#FFF1EB"/>
<path d="M20.04 40.99C36.43 35.62 52.88 30.4 69.21 24.84C69.78 24.65 71.16 24.16 70.94 23.31C70.72 22.5 69.22 22.68 68.68 22.85C52.23 28.03 35.88 33.54 19.49 38.92C18.89 39.12 17.45 39.63 17.69 40.52C17.91 41.36 19.49 41.19 20.05 41L20.04 40.99Z" fill="#FFF1EB"/>
<path d="M16.7 59.74L29.47 67.89L35.75 71.9C37.91 73.28 40.04 74.79 42.29 76.01C43.06 76.42 44.25 76.11 44.96 75.74C45.33 75.55 46.5 74.73 45.82 74.22C43.76 72.67 41.49 71.37 39.32 69.99L33.04 65.98L20.06 57.69C18.9 56.95 14.99 58.65 16.69 59.74H16.7Z" fill="#FFF1EB"/>
</g>
<defs>
<clipPath id="clip0_9_1297">
<rect width="70.96" height="76.21" fill="white"/>
</clipPath>
</defs>
</svg>
