<svg width="31" height="31" viewBox="0 0 31 31" fill="none" xmlns="http://www.w3.org/2000/svg">
<path d="M9.6875 29.0625C10.7576 29.0625 11.625 28.1951 11.625 27.125C11.625 26.0549 10.7576 25.1875 9.6875 25.1875C8.61745 25.1875 7.75 26.0549 7.75 27.125C7.75 28.1951 8.61745 29.0625 9.6875 29.0625Z" fill="#431400"/>
<path d="M23.25 29.0625C24.3201 29.0625 25.1875 28.1951 25.1875 27.125C25.1875 26.0549 24.3201 25.1875 23.25 25.1875C22.1799 25.1875 21.3125 26.0549 21.3125 27.125C21.3125 28.1951 22.1799 29.0625 23.25 29.0625Z" fill="#431400"/>
<path d="M4.82438 2.71637C4.7805 2.49685 4.66194 2.29929 4.48886 2.1573C4.31578 2.0153 4.09887 1.93764 3.875 1.9375H0V3.875H3.08063L6.80062 22.4711C6.8445 22.6907 6.96306 22.8882 7.13614 23.0302C7.30922 23.1722 7.52613 23.2499 7.75 23.25H25.1875V21.3125H8.54437L7.76938 17.4375H25.1875C25.4079 17.4375 25.6217 17.3623 25.7935 17.2244C25.9654 17.0865 26.0852 16.8941 26.133 16.679L28.3301 6.78125H26.3471L24.4106 15.5H7.38188L4.82438 2.71637Z" fill="#431400"/>
<path d="M20.9114 6.38019L17.4375 9.85413V1.9375H15.5V9.85413L12.0261 6.38019L10.6562 7.75L16.4688 13.5625L22.2812 7.75L20.9114 6.38019Z" fill="#431400"/>
</svg>
