<svg width="297" height="185" viewBox="0 0 297 185" fill="none" xmlns="http://www.w3.org/2000/svg">
<g clip-path="url(#clip0_9_767)">
<path d="M162.857 34.0372C141.343 23.148 115.688 25.3397 94.0891 29.7223C72.8413 34.034 52.3314 41.4269 35.5985 51.9738C20.4342 61.5192 6.47402 75.8219 8.59133 92.9384C10.4788 108.206 24.9898 120.415 41.4212 128.517C60.9188 138.132 83.7373 142.857 105.405 145.449C130.109 148.385 154.944 148.15 178.801 145.368C199.699 142.939 220.05 138.499 238.528 131.368C247.757 127.808 256.491 123.562 264.495 118.621C272.478 113.69 280.198 108.096 285.305 101.077C290.412 94.0577 292.077 85.4402 286.556 77.3004C281.524 69.8755 272.337 64.4185 263.589 59.8915C242.267 48.8499 218.057 41.6642 193.748 39.2413C187.658 38.6252 181.597 38.3175 175.549 38.2995C174.406 38.296 171.628 38.4637 171.763 39.7774C171.897 41.0911 174.821 41.4095 175.901 41.4288C198.573 41.7736 221.503 46.3582 242.628 54.9702C259.388 61.8035 284.002 73.2775 281.721 90.0571C280.617 98.1986 273.798 104.949 266.838 110.233C259.879 115.517 252.483 119.947 244.382 123.84C228.255 131.551 210.192 136.768 191.327 140.053C170.43 143.689 148.418 145.034 126.379 143.988C104.339 142.942 82.2985 139.737 61.7509 132.57C45.5654 126.939 29.0749 118.144 20.967 105.174C11.6195 90.201 17.9516 74.766 29.4294 63.7476C42.0887 51.6094 60.2567 43.2457 78.9052 37.3613C88.4855 34.334 98.5756 32.0114 108.912 30.5146C119.247 29.0178 130.361 28.3471 141.24 30.3551C146.559 31.3242 151.797 32.9993 156.555 35.3954C158.109 36.187 160.086 36.4254 161.733 36.0305C162.608 35.8222 164.446 34.8517 162.838 34.0329L162.857 34.0372Z" fill="#A95B16"/>
</g>
<defs>
<clipPath id="clip0_9_767">
<rect width="275.445" height="126.3" fill="white" transform="translate(28.0283) rotate(12.8218)"/>
</clipPath>
</defs>
</svg>
