<svg width="433" height="235" viewBox="0 0 433 235" fill="none" xmlns="http://www.w3.org/2000/svg">
<g clip-path="url(#clip0_14_1783)">
<path d="M160.79 -70.1166C150.045 -47.6256 142.411 -23.7877 138.299 0.744677C134.867 21.3249 131.443 51.7723 152.827 64.104C170.445 74.2721 192.494 64.1395 208.533 55.2689C227.32 44.8899 245.013 32.389 260.654 17.696C276.294 3.00297 289.565 -13.569 298.895 -32.5156C303.461 -41.7755 307.045 -51.5081 309.312 -61.5707C309.864 -64.0199 310.364 -66.5161 310.773 -68.9864C311.151 -71.283 312.002 -74.2157 311.77 -76.5239C311.373 -80.1648 304.06 -81.476 301.129 -81.6022C292.255 -81.9856 283.551 -76.623 276.933 -71.1913C268.062 -63.9394 260.908 -54.6659 253.667 -45.8616C237.427 -26.1208 222.419 -5.42833 208.602 16.0567C194.785 37.5417 182.123 60.0741 170.923 83.1396C159.723 106.205 149.399 128.245 143.567 152.16C138.632 172.361 134.177 204.702 157.221 215.504C166.606 219.905 177.874 219.348 187.917 217.758C200.626 215.746 213.11 212.253 225.101 207.589C274.348 188.43 314.833 151.731 351 114.276C369.91 94.7085 387.821 74.1845 404.62 52.8224C413.063 42.1032 421.238 31.1486 429.108 19.9812C434.974 11.6584 442.605 1.30408 440.78 -9.48741C440.405 -11.635 439.458 -13.6854 438.083 -15.3854C436.151 -17.7771 433.018 -16.7996 430.248 -16.4209C424.294 -15.6069 418.424 -14.0104 412.833 -11.7955C401.274 -7.20009 390.739 -0.28642 381.106 7.50896C370.948 15.7116 361.575 24.864 352.336 34.0684C342.637 43.7466 333.143 53.6441 323.905 63.7575C305.591 83.8123 288.135 104.671 271.822 126.376C256.777 146.414 242.735 167.328 231.298 189.62C219.862 211.913 211.075 234.208 207.449 258.174C204.125 280.121 205.197 304.232 215.976 324.037C226.246 342.916 244.522 355.042 265.782 358.301C287.041 361.561 310.484 356.339 330.088 345.696C354.37 332.482 373.971 312.385 391.79 291.655C408.047 272.762 422.974 252.791 436.606 231.985C450.238 211.178 462.475 189.592 473.229 167.252C478.656 155.988 483.73 144.564 488.418 132.974C493.106 121.383 497.769 110.066 501.013 98.2447C503.827 87.9956 505.778 75.3877 499.724 65.9466C498.467 63.9967 496.749 61.9752 494.711 60.7619C492.328 59.3585 488.563 61.0126 486.074 61.8784C479.988 63.9633 474.369 67.3112 469.321 71.2389C458.806 79.4137 450.476 89.9641 442.224 100.287C433.972 110.61 426.2 120.63 418.46 131.022C387.021 173.124 358.455 217.385 333.059 263.323C320.473 286.124 308.652 309.34 297.655 332.938C287.727 354.256 278.161 375.883 271.699 398.526C265.236 421.168 262.126 443.121 264.959 465.696C266.445 477.488 269.269 489.963 276.514 499.652C282.531 507.712 291.66 512.26 301.67 512.975C321.872 514.403 341.164 503.083 357.734 492.815C380.976 478.435 403.194 462.464 424.474 445.321C467.527 410.619 506.695 371.458 544.311 331.064C562.387 311.64 580.099 291.906 597.834 272.212C598.761 271.183 600.932 268.631 599.524 267.236C598.18 265.907 595.382 267.964 594.511 268.909C551.828 316.333 508.892 363.774 461.7 406.84C438.166 428.298 413.51 448.586 387.457 466.953C374.821 475.859 361.861 484.432 348.491 492.203C339.004 497.707 328.693 502.647 317.813 504.512C306.933 506.378 295.799 504.805 287.582 497.158C277.136 487.422 273.988 471.705 272.479 458.055C269.577 431.91 275.411 405.5 284.022 380.812C293.428 353.821 306.007 327.83 318.836 302.317C332.358 275.417 346.935 249.026 362.551 223.255C378.168 197.484 394.965 172.122 412.689 147.55C421.513 135.312 430.582 123.27 439.885 111.405C449.187 99.5402 458.028 86.8767 469.63 77.4508C475.251 72.8807 481.558 69.3171 488.729 67.9306L487.366 67.5226C499.022 75.4954 496.475 91.747 492.86 103.471C488.636 117.184 483.182 130.671 477.589 143.875C466.413 170.252 453.137 195.763 438.051 220.136C422.974 244.479 405.962 267.653 387.329 289.425C367.629 312.436 344.868 335.552 315.681 346.039C292.982 354.183 265.555 354.276 244.854 341.083C222.392 326.749 213.538 300.377 213.528 274.744C213.537 247.1 222.571 220.194 234.549 195.433C247.108 169.452 263.352 145.449 280.886 122.545C300.218 97.3051 321.011 73.143 343.084 50.2427C353.645 39.2874 364.372 28.3922 375.763 18.2829C386.331 8.88262 398.068 0.0541451 411.397 -5.0177C417.907 -7.50339 424.636 -8.97289 431.569 -9.36451L430.248 -9.74487C437.638 -2.34841 430.82 8.91354 426.001 15.8262C418.606 26.4079 410.916 36.7962 402.993 47.0076C387.195 67.3767 370.379 86.9825 352.629 105.698C318.692 141.475 281.032 177.116 235.289 197.213C224.084 202.15 212.357 206.089 200.381 208.691C190.26 210.872 179.276 212.694 169.058 210.255C143.621 204.211 145.582 173.362 149.89 153.211C154.776 130.336 164.931 108.368 174.924 87.2981C184.916 66.2287 196.979 44.0677 209.799 23.4442C222.619 2.82062 236.641 -16.9909 251.735 -35.9919C258.807 -44.9067 265.922 -54.1574 273.944 -62.244C279.382 -67.7216 286.492 -73.4371 294.461 -74.1676C298.238 -74.5296 301.768 -73.5024 304.739 -71.2174L304.362 -72.5063C300.015 -28.3047 269.878 7.69454 234.779 32.9205C225.938 39.2716 216.678 45.0333 207.112 50.2187C197.546 55.4041 187.926 59.8152 177.363 60.8221C166.801 61.8291 156.154 58.1045 149.867 49.0318C142.875 38.9638 142.333 25.3534 143.249 13.4982C145.511 -15.4207 154.244 -44.4392 166.761 -70.6287C167.415 -71.9935 167.794 -73.9265 165.731 -73.9566C163.851 -73.9882 161.483 -71.6859 160.748 -70.1442L160.79 -70.1166Z" fill="#FFF5EC" fill-opacity="0.05"/>
</g>
<defs>
<clipPath id="clip0_14_1783">
<rect width="410.521" height="587.47" fill="white" transform="translate(0 21.2607) rotate(-30)"/>
</clipPath>
</defs>
</svg>
