<svg width="29" height="29" viewBox="0 0 29 29" fill="none" xmlns="http://www.w3.org/2000/svg">
<g clip-path="url(#clip0_14_1686)">
<path d="M7.85826 16.0912C8.14248 12.8909 8.41781 9.69522 8.66622 6.4908C8.74739 5.57324 7.76397 5.62683 7.15852 5.9364C6.375 6.33702 5.38972 7.17775 5.29094 8.12677C4.9622 11.3498 4.65126 14.5637 4.35378 17.782C4.26845 18.7354 5.3144 18.6723 5.91985 18.3627C6.72117 17.953 7.77313 17.0669 7.85826 16.0912Z" fill="#431400"/>
<path d="M14.0199 17.4446C15.8862 15.12 17.7391 12.7912 19.5875 10.4534C19.928 10.021 20.651 8.86506 19.8029 8.54622C18.9547 8.22738 17.8854 9.16726 17.4341 9.71248C15.5408 12.0283 13.661 14.3485 11.7768 16.6821C11.507 17.011 11.2025 17.47 11.1573 17.9087C11.1286 18.2041 11.2259 18.5699 11.5443 18.6655C12.4187 18.9259 13.5112 18.0753 14.0021 17.4537L14.0199 17.4446Z" fill="#431400"/>
<path d="M20.7386 23.0503C22.5527 21.8756 24.3757 20.6964 26.1853 19.5128C26.6121 19.2272 27.0376 18.8074 27.2976 18.3713C27.4562 18.1105 27.7021 17.6029 27.5918 17.2774C27.2889 16.4214 26.1536 16.9907 25.66 17.2993C23.8322 18.4472 22.0135 19.613 20.1994 20.7877C19.7592 21.0689 19.3249 21.5156 19.0606 21.9652C18.902 22.226 18.6428 22.7516 18.7622 23.0949C19.0742 23.9687 20.2408 23.3947 20.7388 23.0727L20.7386 23.0503Z" fill="#431400"/>
</g>
<defs>
<clipPath id="clip0_14_1686">
<rect width="21.08" height="21.44" fill="white" transform="translate(0 9.59668) rotate(-27.0813)"/>
</clipPath>
</defs>
</svg>
