<svg width="780" height="110" viewBox="0 0 780 110" fill="none" xmlns="http://www.w3.org/2000/svg">
<path d="M170.128 23.8053C247.694 17.9832 325.367 13.7113 403.112 10.9898C481.14 8.26817 559.204 7.09686 637.268 7.44136C681.15 7.64807 725.068 8.33707 768.95 9.54284L774.137 2.20491C674.719 5.96 575.3 9.68064 475.881 13.4013L177.661 24.6321L9.02542 30.9365L3.94434 38.1022C92.2415 34.1059 180.61 32.0389 268.978 31.7978C357.346 31.5911 445.75 33.2447 534.083 36.7931C583.543 38.7912 632.969 41.3405 682.358 44.5099L685.805 37.3787C612.715 42.374 539.626 46.887 466.501 50.9866C393.34 55.0518 320.109 58.6346 246.913 61.7696C205.589 63.5265 164.265 65.1457 122.941 66.6271L119.53 73.6894C193.046 65.6969 266.917 60.6672 340.859 58.7379C414.766 56.7743 488.779 57.8422 562.615 61.9074C604.045 64.1811 645.44 67.4539 686.729 71.6224L690.175 64.4912C605.431 70.2444 520.687 75.5153 435.872 80.0627C351.057 84.6102 267.344 88.4686 183.026 91.4658C135.306 93.1883 87.5513 94.6008 39.7962 95.7376L36.3496 102.869C131.966 96.53 227.761 92.8438 323.626 92.1892C419.137 91.5347 514.682 93.7051 610.05 98.7693C663.775 101.629 717.464 105.28 771.046 109.966C773.711 110.207 778.117 108.967 779.538 106.555C781.102 103.937 778.188 103.076 776.056 102.869C680.049 94.5319 583.828 88.9854 487.465 86.4705C391.67 83.9556 295.84 84.3346 200.081 87.6074C146.073 89.4332 92.0639 92.1548 38.1617 95.8754C35.8521 96.0477 31.8015 97.3913 30.9132 99.7339C30.0249 102.077 32.6187 103.076 34.7151 103.007C119.921 100.905 205.091 97.9425 290.226 94.1529C375.326 90.3978 460.389 85.8504 545.382 80.7173C593.066 77.8579 640.715 74.7918 688.399 71.5535C693.018 71.2434 700.053 65.2491 691.845 64.4223C618.01 56.9465 543.854 52.5024 469.592 51.09C395.081 49.6775 320.535 51.3656 246.202 56.0164C204.487 58.6346 162.844 62.2174 121.307 66.7649C118.997 67.006 115.018 68.1773 114.129 70.5889C113.241 73.0004 115.799 73.8961 117.896 73.8272C191.696 71.1745 265.46 68.1084 339.225 64.5256C412.634 60.9772 486.043 56.981 559.382 52.5024C600.954 49.9876 642.491 47.3004 684.028 44.4755C686.338 44.3032 690.388 42.9597 691.277 40.6171C692.165 38.2744 689.536 37.4821 687.475 37.3443C599.284 31.6944 510.951 27.9049 422.583 26.0101C334.215 24.1153 245.811 24.1153 157.443 26.0101C107.947 27.0781 58.4861 28.7317 9.02542 30.971C6.21839 31.1088 1.99007 31.7633 0.426661 34.416C-1.03015 36.862 1.67028 38.2055 3.97987 38.1366L302.165 27.0092C401.548 23.2885 500.967 19.5679 600.35 15.8817C656.562 13.7802 712.738 11.7132 768.95 9.61174C771.828 9.50839 776.163 8.78493 777.762 6.0978C779.361 3.41067 776.447 2.34271 774.137 2.30826C695.825 0.0689874 617.441 -0.516669 539.093 0.447941C460.745 1.447 382.468 3.99633 304.226 8.09592C260.095 10.4041 216 13.229 171.94 16.5363C169.63 16.7085 164.62 18.2588 164.23 20.9804C163.839 23.9431 168.102 23.9431 170.057 23.8053H170.128Z" fill="#DC8539" fill-opacity="0.1"/>
</svg>
