<svg width="141" height="121" viewBox="0 0 141 121" fill="none" xmlns="http://www.w3.org/2000/svg">
<g clip-path="url(#clip0_14_1676)">
<path d="M98.1136 53.19C95.3522 55.0659 91.8579 55.0586 88.8503 53.7305C85.5181 52.2608 83.1842 49.5044 81.8091 46.1724C80.1635 42.1941 79.9357 37.7596 80.3035 33.515C80.6195 29.8508 81.3478 26.1919 82.5276 22.7073C84.7731 16.0666 88.9063 9.32307 95.2933 5.98127C98.295 4.4076 101.758 3.60998 105.093 4.5572C108.428 5.50442 110.883 7.91173 112.653 10.7021C116.817 17.288 117.655 25.7493 117.452 33.3652C117.247 41.2218 115.725 49.1266 113.345 56.601C108.598 71.4846 99.6453 85.1587 86.4114 93.7651C79.6161 98.1846 71.855 101.21 63.7829 102.13C55.6523 103.053 47.4366 101.933 39.4712 100.29C37.4799 99.879 35.4994 99.4203 33.5225 98.9513C32.5015 98.7112 32.1447 95.5609 33.3578 95.8275C40.8458 97.454 48.4303 99.0508 56.1185 99.1878C63.8067 99.3249 71.2709 97.8191 78.2399 94.6567C91.8773 88.469 102.224 76.8275 108.405 63.3513C111.355 56.9157 113.411 50.0422 114.623 43.065C115.909 35.6934 116.359 28.0601 114.775 20.703C113.501 14.7595 110.094 7.83278 103.203 7.40351C96.3121 6.97423 90.7906 12.3144 87.4725 17.5866C83.8494 23.3569 81.9422 30.4317 81.8319 37.234C81.7736 40.9016 82.3786 44.8287 84.7724 47.744C86.6922 50.086 89.8512 51.6738 92.8996 51.6237C94.4221 51.5953 95.8771 51.1809 97.1382 50.3308C98.1221 49.6662 98.9794 52.6339 98.1167 53.2141L98.1136 53.19Z" fill="#431400"/>
<path d="M35.846 105.403L22.87 98.7551C22.088 98.3565 21.6671 96.8006 22.1642 96.0472C23.1829 94.5029 24.7726 93.7499 26.447 93.1011C28.515 92.2958 30.6031 91.532 32.6843 90.7716C36.8777 89.2442 41.0845 87.7445 45.3176 86.3346C46.2285 86.0301 46.8743 88.861 45.8734 89.2262C41.9147 90.6741 37.9329 92.0392 33.9741 93.487C32.0586 94.1843 30.1429 94.8987 28.2373 95.6339C26.525 96.2926 24.4905 96.8851 23.4194 98.4975L22.7137 95.7896L35.683 102.424C36.2943 102.734 36.5354 103.531 36.5654 104.175C36.579 104.467 36.4504 105.717 35.8391 105.406L35.846 105.403Z" fill="#431400"/>
</g>
<defs>
<clipPath id="clip0_14_1676">
<rect width="75.5836" height="119.605" fill="white" transform="matrix(-0.435966 -0.899963 -0.899963 0.435966 140.592 68.0225)"/>
</clipPath>
</defs>
</svg>
