<svg width="64" height="65" viewBox="0 0 64 65" fill="none" xmlns="http://www.w3.org/2000/svg">
<g clip-path="url(#clip0_14_1679)">
<path d="M23.3547 25.1531C20.5419 21.9686 16.5019 18.5565 11.9047 19.7244C6.97621 20.9736 5.20497 26.9174 5.65164 31.3976C6.67472 41.7081 17.657 46.7483 26.7164 48.1678C32.2873 49.0399 38.2334 48.6772 43.2693 51.5739C43.9426 51.9628 45.13 50.1125 44.4825 49.7445C40.3779 47.3877 35.6074 47.0983 30.995 46.6475C26.3825 46.1966 21.9727 45.2534 17.8322 43.2709C13.6917 41.2883 10.0671 38.4128 8.23447 34.2387C7.33235 32.1719 6.93493 29.8633 7.15872 27.6108C7.35421 25.6748 7.97707 23.4924 9.6708 22.3316C11.6816 20.9489 14.3956 21.2915 16.4684 22.3023C18.5413 23.3131 20.388 24.9973 21.9391 26.7533C22.5175 27.4082 23.8102 25.6688 23.3547 25.1531Z" fill="#431400"/>
<path d="M23.4692 25.1831C22.5552 20.7878 23.2039 16.0542 25.1702 12.0074C26.1198 10.0538 27.4052 8.2481 29.0469 6.81258C29.4544 6.45256 29.8878 6.11347 30.3347 5.8062C30.7162 5.54939 31.3245 5.02665 31.7841 4.94128C32.2437 4.85591 32.9647 5.04978 33.4345 5.16675C34.0038 5.30512 34.5402 5.53078 35.0366 5.83555C36.9103 6.98593 37.8352 9.12003 38.3023 11.1922C38.8078 13.449 38.893 15.7857 38.9141 18.0914C38.9371 20.8473 38.8163 23.6064 38.8779 26.3646C38.9395 29.1228 39.0958 32.0378 39.3431 34.8652C39.8846 41.0542 40.8837 47.1887 42.3042 53.2278C42.5323 54.1996 43.9732 52.628 43.8153 51.9514C42.4763 46.2701 41.5119 40.4985 40.9541 34.681C40.6651 31.6572 40.4819 28.6202 40.4032 25.5856C40.3246 22.5509 40.4571 19.6723 40.4276 16.7182C40.4015 14.2492 40.3088 11.7297 39.6726 9.33328C39.1085 7.20108 38.0877 5.04967 36.1007 3.91199C35.1312 3.36203 33.6731 2.86469 32.541 3.02674C32.0241 3.09709 31.4944 3.48482 31.0537 3.75753C30.5079 4.09387 29.9833 4.4625 29.4841 4.85978C27.525 6.40071 25.9333 8.38233 24.7032 10.5327C21.9937 15.265 20.8542 21.1025 21.9664 26.4523C22.1676 27.4185 23.6194 25.8593 23.4774 25.1759L23.4692 25.1831Z" fill="#431400"/>
</g>
<defs>
<clipPath id="clip0_14_1679">
<rect width="44.1043" height="46.6007" fill="white" transform="translate(0 29.1978) rotate(-41.454)"/>
</clipPath>
</defs>
</svg>
