<svg width="73" height="72" viewBox="0 0 73 72" fill="none" xmlns="http://www.w3.org/2000/svg">
<g clip-path="url(#clip0_14_1690)">
<path d="M23.4705 48.4146C23.2657 36.1244 22.1208 23.8612 20.0263 11.7528C19.8727 10.8314 18.8866 11.3483 18.4833 11.7379C17.8474 12.3482 17.3629 13.4272 17.5155 14.3202C19.5662 26.1968 20.6946 38.1988 20.8975 50.2413C20.9131 51.0616 21.4609 51.3389 22.1527 50.9034C22.8858 50.4382 23.4945 49.2699 23.4774 48.4072L23.4705 48.4146Z" fill="#431400"/>
<path d="M18.9175 13.9581C28.7053 19.4834 39.5607 22.642 50.5478 24.7486C51.7949 24.9935 53.4476 21.3958 51.887 21.0915C41.0779 19.0138 30.4135 15.8553 20.7848 10.4234C19.593 9.75191 17.6823 13.2599 18.9175 13.9581Z" fill="#431400"/>
<path d="M21.489 51.529C30.9398 54.9791 39.9422 59.528 48.3172 65.1186C49.4122 65.8502 51.4024 62.3888 50.1845 61.5838C41.8168 56.0001 32.8071 51.4443 23.3562 47.9942C21.9868 47.499 20.2556 51.0784 21.489 51.529Z" fill="#431400"/>
<path d="M50.5906 61.661C49.3049 48.8298 50.1925 35.835 53.1054 23.2762C53.2582 22.6126 53.0647 21.7634 52.2313 21.9988C51.3978 22.2342 50.8064 23.4868 50.6288 24.2504C47.594 37.3513 46.739 50.8545 48.073 64.2358C48.1638 65.1807 49.2468 64.6037 49.6229 64.2434C50.2996 63.5891 50.681 62.5917 50.5906 61.661Z" fill="#431400"/>
</g>
<defs>
<clipPath id="clip0_14_1690">
<rect width="43.17" height="58.83" fill="white" transform="translate(0 31.6113) rotate(-47.0754)"/>
</clipPath>
</defs>
</svg>
