<svg width="50" height="59" viewBox="0 0 50 59" fill="none" xmlns="http://www.w3.org/2000/svg">
<g clip-path="url(#clip0_14_1682)">
<path d="M28.4977 52.9829C19.9044 45.199 11.6493 37.0576 3.65247 28.6511C3.03496 28.005 2.55708 29.0418 2.47641 29.5361C2.33619 30.4164 2.6276 31.4011 3.22522 32.0452C11.1303 40.563 19.4581 48.6816 28.0592 56.4864C28.7305 57.0978 29.1804 56.1386 29.2682 55.5746C29.3944 54.7331 29.1511 53.5723 28.4977 52.9829Z" fill="#431400"/>
<path d="M35.4598 43.381C33.1768 38.966 30.8938 34.5511 28.5998 30.145C28.3313 29.625 27.686 28.956 27.2197 29.6823C26.7535 30.4087 26.9439 31.5942 27.2947 32.2935C29.5657 36.7273 31.8378 41.1512 34.1187 45.5861C34.3962 46.117 35.0594 46.808 35.5376 46.0628C36.0159 45.3175 35.8284 44.1022 35.4588 43.3909L35.4598 43.381Z" fill="#431400"/>
<path d="M46.1941 34.7375C44.0264 24.866 41.8796 14.9865 39.6821 5.11198C39.5668 4.56744 39.2383 3.25726 38.441 3.38688C37.6845 3.51062 37.6924 4.90866 37.8018 5.41239C39.9386 15.2908 42.1064 25.1623 44.2731 35.0438C44.3972 35.5993 44.7227 36.9393 45.5409 36.8017C46.3074 36.679 46.3025 35.2511 46.1852 34.7265L46.1941 34.7375Z" fill="#431400"/>
</g>
<defs>
<clipPath id="clip0_14_1682">
<rect width="54.05" height="44.15" fill="white" transform="translate(0 53.77) rotate(-84.1653)"/>
</clipPath>
</defs>
</svg>
