<svg xmlns="http://www.w3.org/2000/svg">

    <symbol id="menu-grid" viewBox="0 0 512 511.96">
        <path d="M10.44 0h196.59c5.75 0 10.45 4.7 10.45 10.44v196.59c0 5.75-4.7 10.45-10.45 10.45H10.44C4.7 217.48 0 212.78 0 207.03V10.44C0 4.7 4.7 0 10.44 0zm294.52 294.48h196.59c5.74 0 10.45 4.69 10.45 10.44v196.6c0 5.74-4.71 10.44-10.45 10.44H304.96c-5.75 0-10.45-4.7-10.45-10.44v-196.6c0-5.75 4.7-10.44 10.45-10.44zm0-294.48h196.59C507.29 0 512 4.7 512 10.44v196.59c0 5.75-4.71 10.45-10.45 10.45H304.96c-5.75 0-10.45-4.7-10.45-10.45V10.44c0-5.74 4.7-10.44 10.45-10.44zM10.44 294.48h196.59c5.75 0 10.45 4.69 10.45 10.44v196.6c0 5.74-4.7 10.44-10.45 10.44H10.44C4.7 511.96 0 507.26 0 501.52v-196.6c0-5.75 4.7-10.44 10.44-10.44z"/>
    </symbol>

    <symbol id="menu-cross" viewBox="0 0 122.88 122.88">
        <path class="st0" d="M1.63,97.99l36.55-36.55L1.63,24.89c-2.17-2.17-2.17-5.73,0-7.9L16.99,1.63c2.17-2.17,5.73-2.17,7.9,0 l36.55,36.55L97.99,1.63c2.17-2.17,5.73-2.17,7.9,0l15.36,15.36c2.17,2.17,2.17,5.73,0,7.9L84.7,61.44l36.55,36.55 c2.17,2.17,2.17,5.73,0,7.9l-15.36,15.36c-2.17,2.17-5.73,2.17-7.9,0L61.44,84.7l-36.55,36.55c-2.17,2.17-5.73,2.17-7.9,0 L1.63,105.89C-0.54,103.72-0.54,100.16,1.63,97.99L1.63,97.99z"/>
    </symbol>
</svg>